<?xml version="1.0" standalone="no"?>
<!DOCTYPE svg PUBLIC "-//W3C//DTD SVG 20010904//EN"
 "http://www.w3.org/TR/2001/REC-SVG-20010904/DTD/svg10.dtd">
<svg version="1.0" xmlns="http://www.w3.org/2000/svg"
 width="1611.000000pt" height="907.000000pt" viewBox="0 0 1611.000000 907.000000"
 preserveAspectRatio="xMidYMid meet">

<g transform="translate(0.000000,907.000000) scale(0.100000,-0.100000)"
fill="#000000" stroke="none">
<path d="M0 4535 l0 -4535 8055 0 8055 0 0 4075 c0 3875 -1 4075 -17 4071 -35
-6 -72 -25 -80 -41 -7 -12 -29 -16 -86 -19 -42 -2 -83 -9 -91 -15 -12 -10 -21
-8 -48 12 -36 27 -81 32 -99 11 -6 -8 -18 -14 -25 -14 -8 0 -14 -4 -14 -10 0
-5 -3 -9 -7 -8 -5 1 -19 -2 -32 -6 -19 -7 -28 -4 -41 11 -23 29 -68 56 -80 48
-5 -3 -10 -1 -10 6 0 8 -17 10 -61 6 -44 -4 -62 -2 -65 8 -6 15 -74 15 -74 -1
0 -8 -30 -11 -89 -10 -82 1 -91 -1 -116 -24 -26 -25 -27 -25 -41 -5 -12 16
-16 17 -23 6 -7 -11 -10 -9 -15 7 -18 56 -130 84 -142 36 -6 -22 -6 -23 -26
-4 -37 35 -142 37 -192 4 -16 -10 -38 -20 -50 -21 -12 -2 -28 -6 -36 -10 -8
-3 -21 -5 -28 -4 -8 1 -20 -6 -27 -16 -12 -16 -14 -16 -20 -2 -6 17 -55 24
-55 8 0 -11 -34 -12 -44 -2 -13 14 -66 9 -81 -7 -15 -17 -41 -20 -62 -7 -20
12 -134 -1 -152 -17 -13 -12 -25 -14 -49 -7 -20 6 -34 6 -38 0 -3 -6 -21 6
-40 25 -31 32 -38 35 -89 34 -30 -1 -58 1 -62 5 -10 11 -91 8 -98 -3 -4 -6
-11 -8 -16 -5 -5 4 -12 -1 -15 -9 -3 -9 -14 -16 -24 -16 -10 0 -22 -9 -25 -21
-5 -16 -12 -19 -28 -14 -12 4 -40 8 -61 9 -30 1 -41 6 -49 23 -8 17 -17 21
-44 19 -19 -1 -36 2 -40 6 -3 5 -11 7 -19 4 -7 -3 -16 -1 -19 4 -9 15 -65 12
-65 -2 0 -9 -3 -9 -9 1 -7 12 -13 12 -24 3 -7 -7 -17 -8 -21 -4 -4 4 -13 -1
-20 -10 -10 -13 -31 -19 -84 -21 -39 -2 -78 -10 -87 -17 -10 -8 -19 -9 -27 -2
-7 5 -40 10 -72 11 -38 1 -66 7 -76 16 -10 9 -25 13 -34 9 -9 -3 -16 -1 -16 4
0 14 -81 13 -98 -1 -7 -5 -15 -7 -18 -4 -4 3 -13 0 -20 -8 -18 -18 -45 -9 -37
12 5 13 2 15 -15 11 -12 -4 -25 -2 -28 3 -8 14 -66 11 -113 -6 -22 -8 -41 -12
-41 -9 0 2 -18 -7 -40 -21 -22 -14 -40 -22 -40 -19 0 4 -9 -1 -20 -11 -16 -14
-20 -15 -20 -4 0 8 -8 16 -17 17 -92 11 -123 21 -116 39 4 9 0 14 -8 12 -15
-2 -42 6 -72 22 -10 5 -22 7 -27 4 -5 -3 -11 -1 -14 4 -10 16 -103 7 -124 -12
-10 -9 -26 -17 -34 -17 -9 0 -18 -9 -21 -20 -5 -19 -11 -20 -59 -15 -39 5 -60
14 -78 33 -35 38 -75 40 -101 8 -15 -19 -26 -25 -44 -20 -12 3 -26 1 -29 -5
-4 -6 -16 -11 -27 -11 -12 0 -19 -7 -19 -20 0 -26 -3 -25 -41 10 -21 18 -36
26 -40 19 -4 -7 -9 -5 -12 6 -4 9 -12 15 -19 14 -34 -4 -59 3 -76 21 -15 17
-27 20 -58 15 -47 -7 -52 -7 -133 0 -53 4 -62 3 -57 -10 3 -8 1 -15 -3 -15 -5
0 -11 5 -13 12 -3 7 -12 6 -30 -6 -25 -16 -28 -16 -51 -1 -18 11 -27 13 -32 5
-5 -8 -10 -8 -20 0 -10 9 -23 3 -54 -26 -40 -36 -42 -36 -61 -19 -11 10 -20
15 -20 10 0 -4 -6 -3 -12 3 -20 16 -124 7 -143 -12 -10 -10 -27 -14 -48 -12
-18 3 -35 5 -39 5 -4 1 -5 8 -2 16 4 11 -1 15 -17 15 -13 -1 -38 2 -56 6 -32
6 -93 -13 -93 -29 0 -5 -3 -6 -7 -4 -16 10 -54 -13 -51 -30 3 -16 -4 -18 -47
-15 -27 2 -55 10 -61 18 -13 16 -106 29 -132 19 -25 -11 -52 -13 -52 -3 0 4
-9 8 -19 8 -11 0 -22 6 -24 13 -4 9 -8 9 -15 -2 -7 -10 -11 -10 -17 -1 -5 8
-11 7 -23 -3 -23 -20 -109 -15 -126 8 -12 17 -81 22 -159 12 -22 -3 -56 1 -78
8 -25 9 -39 10 -39 4 0 -6 -6 -9 -12 -6 -7 2 -12 11 -10 20 2 12 -5 15 -32 14
-38 -3 -79 -34 -72 -54 3 -7 -1 -13 -10 -13 -8 0 -18 -10 -23 -23 -8 -20 -14
-22 -56 -19 -28 3 -49 10 -52 18 -3 8 -13 14 -23 14 -22 0 -36 17 -45 53 -10
38 -46 63 -93 65 -31 1 -41 -3 -51 -22 -12 -21 -38 -29 -51 -16 -36 36 -159
62 -186 39 -12 -10 -20 -7 -42 13 -37 33 -82 35 -111 4 -13 -14 -20 -29 -16
-35 3 -6 0 -11 -8 -11 -8 0 -25 -8 -38 -19 -13 -10 -41 -24 -63 -32 -22 -8
-42 -23 -47 -35 -11 -30 -24 -37 -39 -19 -15 18 -63 20 -91 4 -16 -8 -25 -7
-39 6 -10 9 -24 14 -29 10 -6 -3 -11 0 -11 8 0 10 -10 14 -33 14 -17 -1 -34
-4 -37 -8 -5 -7 -49 -12 -82 -10 -11 1 -15 6 -12 15 4 11 -6 16 -38 20 -36 5
-103 3 -103 -4 0 -7 -47 -5 -51 2 -3 5 -15 6 -25 3 -11 -4 -27 -1 -35 6 -22
18 -54 22 -54 6 0 -9 -2 -9 -9 1 -6 10 -10 10 -20 -2 -7 -8 -19 -12 -27 -9 -7
3 -16 -2 -20 -10 -3 -9 -11 -14 -19 -11 -7 3 -15 -2 -18 -10 -4 -11 -16 -14
-42 -11 -20 3 -46 0 -58 -7 -12 -7 -24 -13 -27 -13 -3 0 -15 -6 -26 -13 -18
-9 -24 -9 -34 3 -10 12 -16 13 -26 4 -11 -9 -14 -8 -14 1 0 7 -7 10 -15 7 -8
-4 -17 -2 -20 3 -8 12 -63 6 -78 -9 -6 -6 -26 -11 -44 -11 -25 0 -31 4 -27 15
4 10 0 15 -15 15 -13 0 -26 10 -33 25 -6 14 -17 25 -24 25 -7 0 -11 6 -8 14
11 28 -79 56 -103 32 -3 -2 -20 4 -38 14 -42 24 -109 23 -152 -1 -19 -11 -39
-17 -44 -13 -6 3 -28 7 -48 9 -32 3 -41 -1 -51 -21 -7 -13 -21 -26 -32 -30
-10 -3 -18 -9 -18 -14 0 -5 -16 -14 -35 -21 -19 -7 -35 -17 -35 -22 0 -6 -5
-5 -12 0 -7 6 -24 9 -38 8 -14 -1 -36 2 -50 8 -14 6 -29 12 -35 13 -5 1 -12 3
-15 4 -3 1 -24 4 -47 6 -30 3 -47 -1 -59 -14 -12 -11 -19 -13 -21 -5 -13 37
-43 59 -83 60 -27 1 -43 -3 -47 -12 -6 -17 -68 -36 -88 -29 -7 3 -16 1 -19 -5
-4 -6 -13 -8 -21 -4 -8 3 -15 1 -15 -5 0 -14 -41 -2 -47 14 -4 10 -25 12 -81
10 -66 -3 -80 -1 -99 17 -24 21 -118 33 -128 16 -3 -4 -11 -6 -18 -3 -8 3 -26
-5 -42 -18 -17 -14 -39 -21 -56 -20 -15 2 -30 -2 -34 -8 -5 -8 -17 -2 -37 17
-25 23 -39 28 -86 30 -31 1 -83 4 -115 7 -49 4 -61 2 -78 -15 -22 -22 -96 -30
-108 -11 -7 11 -28 11 -47 -1 -6 -3 -14 -3 -18 1 -4 4 -13 7 -19 7 -7 1 -29 5
-50 9 -30 7 -42 5 -56 -8 -14 -12 -21 -14 -26 -6 -5 8 -14 5 -30 -10 -20 -19
-26 -20 -44 -8 -12 7 -21 15 -21 18 0 3 -16 6 -35 6 -19 1 -35 -3 -35 -7 0 -5
-5 -9 -12 -9 -6 0 -22 -10 -35 -22 -14 -13 -27 -18 -31 -13 -9 13 -35 13 -44
0 -5 -6 -8 -6 -8 2 0 9 -7 8 -26 -2 -15 -7 -33 -11 -40 -8 -7 3 -27 -5 -43
-16 -32 -23 -51 -27 -51 -10 0 6 -6 9 -14 6 -7 -3 -22 7 -34 22 -16 22 -29 28
-61 29 -22 1 -43 -2 -46 -8 -3 -5 -12 -7 -20 -3 -9 3 -15 -1 -15 -8 0 -11 -2
-11 -10 1 -11 18 -92 20 -98 2 -2 -6 -10 -12 -18 -12 -8 0 -26 -7 -40 -16 -24
-16 -26 -16 -50 7 -21 19 -38 24 -87 26 -34 2 -80 5 -101 8 -22 3 -46 3 -55
-1 -32 -14 -59 -14 -71 1 -7 8 -20 15 -30 15 -9 0 -20 3 -23 6 -9 10 -97 11
-97 2 0 -5 -7 -8 -16 -8 -9 0 -23 -9 -32 -21 -14 -16 -29 -20 -79 -20 -35 0
-65 -5 -68 -9 -3 -5 -12 -7 -19 -4 -8 3 -17 1 -20 -5 -5 -7 -20 -2 -44 12 -46
29 -78 29 -119 -1 -18 -13 -33 -20 -33 -17 0 4 -11 0 -25 -9 -23 -15 -25 -15
-35 3 -16 32 -79 64 -130 67 -28 2 -52 -1 -55 -7 -5 -7 -14 -4 -27 8 -27 24
-85 26 -91 3 -3 -11 -13 -16 -28 -14 -13 1 -24 3 -24 5 0 7 -96 5 -101 -2 -3
-5 -10 -7 -15 -3 -6 3 -19 -3 -30 -15 -19 -20 -49 -19 -49 1 0 6 -6 8 -14 5
-9 -4 -21 5 -31 20 -12 18 -19 22 -25 13 -5 -8 -9 -5 -13 9 -7 29 -66 29 -90
0 -17 -19 -19 -19 -30 -5 -14 19 -147 35 -147 18 0 -5 -6 -9 -12 -9 -12 1 -58
-17 -111 -45 -10 -5 -22 -6 -27 -3 -5 3 -19 0 -30 -7 -16 -10 -22 -10 -28 -1
-8 12 -24 12 -54 -2 -10 -4 -26 -4 -35 1 -31 13 -67 11 -86 -5 -20 -16 -55
-22 -63 -10 -6 11 -103 9 -109 -2 -3 -4 -12 -6 -20 -3 -9 4 -18 -1 -21 -11 -4
-10 -13 -14 -23 -10 -27 11 -61 13 -67 3 -3 -5 -21 6 -39 25 -29 30 -40 35
-92 37 -144 8 -174 6 -184 -12 -6 -10 -16 -18 -24 -18 -8 0 -21 -10 -29 -22
-13 -18 -19 -20 -39 -11 -12 6 -35 9 -50 8 -19 -2 -33 4 -45 20 -11 14 -28 22
-47 22 -17 0 -39 4 -50 9 -11 5 -51 9 -88 9 -56 0 -72 -4 -83 -19 -11 -15 -26
-19 -69 -18 -30 0 -57 -4 -61 -9 -3 -5 -10 -7 -15 -3 -5 3 -16 1 -24 -6 -8 -7
-15 -7 -19 -1 -3 5 -30 9 -59 9 -59 -1 -97 8 -97 24 0 6 -9 8 -20 5 -11 -3
-23 -1 -26 4 -7 12 -91 11 -99 -1 -4 -6 -11 -7 -17 -4 -6 4 -13 2 -17 -4 -10
-17 -35 -18 -36 -2 0 8 -11 17 -25 21 -35 10 -110 11 -110 1 0 -4 -9 -9 -20
-10 -11 -1 -29 -3 -40 -4 -11 -1 -20 -6 -20 -10 0 -4 -4 -8 -10 -8 -7 0 -10
170 -10 490 0 429 -2 490 -15 490 -13 0 -15 -511 -15 -4535z m14770 3605 c0
-5 -5 -10 -11 -10 -5 0 -7 5 -4 10 3 6 8 10 11 10 2 0 4 -4 4 -10z m-13880
-40 c0 -5 -5 -10 -11 -10 -5 0 -7 5 -4 10 3 6 8 10 11 10 2 0 4 -4 4 -10z
m837 -46 c-3 -3 -12 -4 -19 -1 -8 3 -5 6 6 6 11 1 17 -2 13 -5z m7857 -325
c-3 -5 -10 -7 -15 -3 -5 3 -7 10 -3 15 3 5 10 7 15 3 5 -3 7 -10 3 -15z m2360
-828 c3 -5 6 -545 6 -1200 0 -768 4 -1191 10 -1191 7 0 10 -414 10 -1165 0
-1152 0 -1165 -20 -1185 -19 -19 -33 -20 -285 -20 -170 0 -265 4 -265 10 0 6
-11 10 -25 10 -14 0 -25 -4 -25 -9 0 -4 -63 -9 -140 -10 -92 -1 -140 2 -140 9
0 7 -103 10 -315 10 -203 0 -315 -4 -315 -10 0 -7 -372 -10 -1095 -10 -754 0
-1095 3 -1095 10 0 15 -390 12 -408 -3 -9 -7 -16 -7 -24 1 -15 15 -65 16 -73
2 -5 -8 -11 -7 -21 1 -11 9 -18 9 -26 1 -7 -7 -17 -7 -35 1 -18 8 -29 8 -43
-1 -12 -7 -21 -8 -25 -2 -4 6 -100 10 -248 10 -151 -1 -236 -4 -227 -10 12 -7
10 -9 -7 -7 -12 0 -19 5 -17 9 3 4 -13 8 -35 8 -23 0 -41 -4 -41 -10 0 -7
-337 -10 -990 -10 -653 0 -990 3 -990 10 0 6 -9 10 -20 10 -11 0 -20 -4 -20
-10 0 -6 -35 -10 -85 -10 -50 0 -85 4 -85 10 0 6 -110 10 -310 10 -200 0 -310
-4 -310 -10 0 -19 -49 -10 -64 12 -14 19 -16 79 -16 449 0 332 3 429 13 433 9
5 9 7 0 12 -16 7 -19 1299 -3 1309 6 4 10 449 10 1262 0 909 3 1260 11 1270
10 11 656 13 3895 13 2245 0 3885 -4 3888 -9z m-10344 -917 c0 -13 -4 -24 -10
-24 -5 0 -10 6 -10 14 0 8 -3 22 -6 30 -5 12 -2 15 10 10 9 -3 16 -17 16 -30z
m-30 2 c0 -8 3 -21 6 -30 3 -9 2 -16 -4 -16 -6 0 -15 14 -21 30 -8 24 -7 30 5
30 7 0 14 -6 14 -14z m13810 -95 c0 -25 -17 -28 -23 -3 -2 9 -3 5 -1 -10 2
-16 -1 -28 -6 -28 -16 0 -22 42 -10 66 11 19 15 21 26 9 8 -7 14 -23 14 -34z
m-12104 -1185 c16 -17 19 -56 4 -56 -5 0 -10 9 -10 20 0 11 -4 20 -10 20 -13
0 -13 -6 1 -32 14 -26 4 -35 -16 -15 -17 17 -20 47 -5 47 6 0 10 7 10 15 0 19
7 19 26 1z m-2641 -905 c7 -23 -4 -71 -16 -71 -5 0 -9 7 -9 15 0 8 -4 15 -10
15 -14 0 -12 28 3 45 17 19 25 18 32 -4z m245 -520 c0 -25 -17 -28 -23 -3 -2
9 -3 5 -1 -10 2 -16 -1 -28 -6 -28 -16 0 -22 42 -10 66 11 19 15 21 26 9 8 -7
14 -23 14 -34z m12860 -1 c10 -25 10 -32 -4 -45 -14 -15 -18 -15 -31 -1 -17
17 -20 46 -5 46 6 0 10 7 10 15 0 25 17 17 30 -15z m-12570 -793 c0 -26 -12
-47 -25 -47 -20 0 -29 39 -15 66 11 19 15 21 26 9 8 -7 14 -20 14 -28z m510 9
c0 -2 -7 -7 -16 -10 -8 -3 -12 -2 -9 4 6 10 25 14 25 6z m12400 0 c0 -2 -7 -7
-16 -10 -8 -3 -12 -2 -9 4 6 10 25 14 25 6z m-2020 -300 c0 -22 -18 -29 -23
-9 -2 10 -3 6 -1 -9 4 -36 -12 -36 -23 -1 -11 33 13 67 35 47 6 -7 12 -19 12
-28z m280 -61 c0 -8 -7 -15 -15 -15 -8 0 -15 7 -15 15 0 8 7 15 15 15 8 0 15
-7 15 -15z m270 -80 c0 -8 -7 -15 -15 -15 -8 0 -15 7 -15 15 0 8 7 15 15 15 8
0 15 -7 15 -15z m-190 -25 c0 -5 -7 -10 -15 -10 -8 0 -15 5 -15 10 0 6 7 10
15 10 8 0 15 -4 15 -10z m50 -25 c0 -8 7 -15 15 -15 8 0 15 -7 15 -15 0 -9 9
-15 25 -15 14 0 25 -4 25 -10 0 -5 -11 -10 -25 -10 -14 0 -25 5 -25 10 0 6 -7
10 -15 10 -8 0 -15 7 -15 15 0 8 -4 15 -10 15 -5 0 -10 7 -10 15 0 8 5 15 10
15 6 0 10 -7 10 -15z m160 -95 c0 -20 5 -30 15 -30 8 0 15 -4 15 -10 0 -5 7
-10 15 -10 8 0 15 -7 15 -15 0 -8 7 -15 15 -15 8 0 15 -5 15 -11 0 -14 25 -39
39 -39 6 0 11 -7 11 -15 0 -8 7 -15 15 -15 8 0 15 -6 15 -13 0 -7 9 -19 20
-27 11 -8 20 -25 20 -37 0 -16 -6 -23 -20 -23 -11 0 -20 5 -20 10 0 6 -7 10
-15 10 -8 0 -15 7 -15 15 0 8 -7 15 -15 15 -9 0 -15 9 -15 25 0 14 -4 25 -10
25 -5 0 -10 7 -10 15 0 8 -7 15 -15 15 -8 0 -15 5 -15 10 0 6 -7 10 -15 10 -8
0 -15 7 -15 15 0 8 -7 15 -15 15 -8 0 -15 5 -15 11 0 14 -25 39 -39 39 -6 0
-11 7 -11 15 0 8 7 15 15 15 8 0 15 7 15 15 0 8 5 15 10 15 6 0 10 -13 10 -30z
m60 15 c0 -8 -7 -15 -15 -15 -8 0 -15 7 -15 15 0 8 7 15 15 15 8 0 15 -7 15
-15z m-110 -55 c0 -5 7 -10 15 -10 8 0 15 -7 15 -15 0 -8 5 -15 10 -15 6 0 10
-7 10 -15 0 -8 7 -15 15 -15 8 0 15 -4 15 -10 0 -5 7 -10 15 -10 8 0 15 -7 15
-15 0 -8 7 -15 15 -15 9 0 15 -9 15 -25 0 -14 5 -25 10 -25 6 0 10 -7 10 -15
0 -8 7 -15 15 -15 8 0 15 -7 15 -15 0 -8 5 -15 12 -15 6 0 9 -2 7 -5 -10 -9
-49 8 -49 21 0 8 -4 14 -10 14 -5 0 -10 7 -10 15 0 8 -7 15 -15 15 -8 0 -15 5
-15 10 0 6 -7 10 -15 10 -8 0 -15 7 -15 15 0 8 -7 15 -15 15 -8 0 -15 5 -15
11 0 14 -25 39 -39 39 -6 0 -11 7 -11 15 0 8 -7 15 -15 15 -9 0 -15 -9 -15
-25 0 -14 -4 -25 -10 -25 -5 0 -10 23 -10 50 0 47 2 50 25 50 14 0 25 -4 25
-10z m530 -20 c0 -5 16 -10 35 -10 19 0 35 -4 35 -10 0 -5 13 -10 30 -10 22 0
28 -4 24 -15 -4 -9 -19 -15 -40 -15 -19 0 -34 -4 -34 -10 0 -5 -5 -10 -11 -10
-18 0 -39 -27 -39 -50 0 -20 -1 -20 -25 5 -14 14 -35 25 -45 25 -11 0 -20 5
-20 10 0 6 -11 10 -25 10 -14 0 -25 5 -25 10 0 6 -11 10 -25 10 -14 0 -25 4
-25 10 0 5 11 12 25 16 14 3 25 10 25 15 0 5 7 9 15 9 8 0 15 5 15 10 0 6 25
10 55 10 30 0 55 -4 55 -10z m-96 -255 c8 -8 19 -15 25 -15 6 0 11 -4 11 -10
0 -5 7 -10 15 -10 10 0 15 -10 15 -31 0 -30 -19 -59 -39 -59 -6 0 -11 -4 -11
-9 0 -5 -25 -13 -55 -16 -30 -4 -55 -11 -55 -16 0 -5 -13 -9 -30 -9 -23 0 -30
-4 -30 -20 0 -11 -4 -20 -10 -20 -5 0 -10 7 -10 16 0 8 -18 33 -40 55 -22 22
-40 44 -40 49 0 5 -16 12 -35 16 -19 3 -35 10 -35 15 0 5 -7 9 -15 9 -8 0 -15
3 -15 6 0 12 30 34 47 34 10 0 29 7 43 14 37 21 243 21 264 1z m376 -25 c0 -5
11 -10 25 -10 14 0 25 -4 25 -10 0 -5 9 -10 20 -10 11 0 20 -5 20 -11 0 -6 -9
-13 -20 -16 -11 -3 -20 -9 -20 -14 0 -5 -9 -9 -20 -9 -11 0 -20 -4 -20 -10 0
-5 -5 -10 -11 -10 -7 0 -17 -7 -24 -16 -8 -12 -20 -15 -43 -9 -18 3 -32 11
-32 16 0 5 -7 9 -15 9 -8 0 -15 5 -15 10 0 6 -11 10 -25 10 -20 0 -25 5 -25
25 0 21 5 25 30 25 17 0 30 5 30 10 0 6 16 10 35 10 19 0 35 5 35 10 0 6 11
10 25 10 14 0 25 -4 25 -10z m846 -144 c16 -17 19 -46 4 -46 -5 0 -10 -7 -10
-15 0 -8 -4 -15 -10 -15 -5 0 -10 6 -10 14 0 8 -6 16 -12 19 -10 3 -10 10 1
30 17 31 18 32 37 13z m-896 -86 c0 -5 7 -10 15 -10 8 0 15 -4 15 -10 0 -5 11
-10 25 -10 16 0 25 -6 25 -15 0 -8 -7 -15 -15 -15 -8 0 -15 -4 -15 -10 0 -5
-7 -10 -15 -10 -8 0 -15 -4 -15 -10 0 -5 -15 -10 -32 -10 -25 0 -39 8 -57 30
-13 16 -27 27 -32 24 -5 -3 -9 4 -9 15 0 12 7 21 15 21 8 0 15 5 15 10 0 6 18
10 40 10 22 0 40 -4 40 -10z m301 -12 c26 -30 24 -36 -15 -44 -41 -7 -81 21
-70 49 9 25 63 22 85 -5z m-9454 -90 c-3 -8 -6 -5 -6 6 -1 11 2 17 5 13 3 -3
4 -12 1 -19z m1550 -30 c-3 -8 -6 -5 -6 6 -1 11 2 17 5 13 3 -3 4 -12 1 -19z
m7382 16 c17 -4 31 -11 31 -16 0 -13 -26 -38 -39 -38 -6 0 -11 -4 -11 -10 0
-5 -9 -10 -20 -10 -11 0 -20 5 -20 10 0 6 -9 10 -20 10 -11 0 -20 5 -20 10 0
6 7 10 15 10 8 0 15 9 15 20 0 22 15 25 69 14z m-11843 -78 c16 -17 19 -46 4
-46 -5 0 -10 9 -10 20 0 11 -5 20 -11 20 -7 0 -8 -7 -4 -17 15 -37 17 -53 6
-53 -6 0 -11 7 -11 15 0 8 -4 15 -10 15 -14 0 -12 28 3 45 15 18 16 18 33 1z
m12404 -295 c0 -25 -17 -28 -23 -3 -2 9 -3 5 -1 -10 2 -16 -1 -28 -6 -28 -16
0 -22 42 -10 66 11 19 15 21 26 9 8 -7 14 -23 14 -34z m-12460 -245 c0 -19
-17 -21 -23 -3 -2 6 -2 0 0 -15 3 -16 0 -28 -5 -28 -16 0 -23 48 -10 69 9 16
14 17 25 6 7 -8 13 -21 13 -29z m1006 30 c18 -19 18 -44 -1 -62 -13 -14 -17
-14 -30 0 -17 17 -20 46 -5 46 6 0 10 7 10 15 0 19 7 19 26 1z m3609 -5 c7
-23 -4 -71 -16 -71 -5 0 -9 7 -9 15 0 8 -4 15 -10 15 -14 0 -12 28 3 45 17 19
25 18 32 -4z m7271 5 c16 -17 19 -56 4 -56 -5 0 -10 9 -10 20 0 11 -4 20 -10
20 -14 0 -13 -23 2 -38 6 -6 9 -15 5 -18 -9 -9 -37 21 -37 40 0 9 5 16 10 16
6 0 10 7 10 15 0 19 7 19 26 1z m-9270 -10 c16 -17 19 -46 4 -46 -5 0 -10 -7
-10 -15 0 -8 -4 -15 -10 -15 -5 0 -10 7 -10 15 0 8 -4 15 -10 15 -14 0 -12 28
3 45 15 18 16 18 33 1z m3910 0 c16 -17 19 -46 4 -46 -5 0 -10 -7 -10 -15 0
-8 -4 -15 -10 -15 -5 0 -10 7 -10 15 0 8 -4 15 -10 15 -14 0 -12 28 3 45 15
18 16 18 33 1z m799 -5 c7 -23 -4 -71 -16 -71 -5 0 -9 7 -9 15 0 8 -4 15 -10
15 -14 0 -12 28 3 45 17 19 25 18 32 -4z m3475 -25 c0 -19 -17 -21 -23 -3 -2
6 -2 0 0 -15 3 -16 0 -28 -5 -28 -16 0 -23 48 -10 69 9 16 14 17 25 6 7 -8 13
-21 13 -29z m1355 25 c7 -23 -4 -71 -16 -71 -5 0 -9 7 -9 15 0 8 5 15 10 15 6
0 10 9 10 20 0 11 -4 20 -10 20 -5 0 -10 5 -10 10 0 18 18 11 25 -9z m-25 -25
c0 -8 -4 -18 -10 -21 -5 -3 -10 3 -10 14 0 12 5 21 10 21 6 0 10 -6 10 -14z"/>
<path d="M11875 6851 c-7 -12 12 -24 25 -16 11 7 4 25 -10 25 -5 0 -11 -4 -15
-9z"/>
<path d="M7914 5849 c-3 -6 -2 -15 3 -20 5 -5 9 -1 9 11 0 23 -2 24 -12 9z"/>
<path d="M8000 5812 c0 -23 3 -42 8 -42 9 0 8 68 -2 77 -3 3 -6 -12 -6 -35z"/>
<path d="M8170 5812 c0 -23 3 -42 8 -42 9 0 8 68 -2 77 -3 3 -6 -12 -6 -35z"/>
<path d="M8121 5801 c1 -28 3 -30 6 -11 3 14 9 30 14 36 5 7 3 11 -6 11 -11 0
-15 -11 -14 -36z"/>
<path d="M8082 5800 c1 -16 5 -30 10 -30 11 0 10 47 -1 55 -5 3 -9 -8 -9 -25z"/>
<path d="M7953 5814 c13 -4 17 -12 14 -25 -3 -10 -1 -19 5 -19 19 0 3 45 -17
47 -17 2 -17 1 -2 -3z"/>
<path d="M7910 5791 c0 -10 19 -25 25 -20 1 2 -3 10 -11 17 -8 7 -14 8 -14 3z"/>
<path d="M8041 5784 c0 -11 3 -14 6 -6 3 7 2 16 -1 19 -3 4 -6 -2 -5 -13z"/>
<path d="M7804 4809 c-3 -6 -2 -15 3 -20 5 -5 9 -1 9 11 0 23 -2 24 -12 9z"/>
<path d="M7970 4772 c0 -23 3 -42 8 -42 9 0 8 68 -2 77 -3 3 -6 -12 -6 -35z"/>
<path d="M8010 4772 c0 -23 3 -42 8 -42 9 0 8 68 -2 77 -3 3 -6 -12 -6 -35z"/>
<path d="M8053 4765 c0 -22 2 -30 4 -17 2 12 2 30 0 40 -3 9 -5 -1 -4 -23z"/>
<path d="M8080 4766 c0 -20 2 -36 4 -36 8 0 12 61 4 66 -4 3 -8 -11 -8 -30z"/>
<path d="M7890 4766 c0 -14 4 -27 8 -30 5 -3 6 8 4 25 -5 35 -12 38 -12 5z"/>
<path d="M7936 4777 c3 -10 9 -15 12 -12 3 3 0 11 -7 18 -10 9 -11 8 -5 -6z"/>
<path d="M8129 4758 c4 -28 6 -29 9 -9 2 13 0 27 -5 32 -6 6 -7 -3 -4 -23z"/>
<path d="M8160 4766 c0 -14 4 -27 8 -30 5 -3 6 8 4 25 -5 35 -12 38 -12 5z"/>
<path d="M8204 4744 c-1 -30 2 -41 7 -33 11 17 12 79 2 79 -5 0 -9 -21 -9 -46z"/>
<path d="M8240 4781 c0 -10 19 -25 25 -20 1 2 -3 10 -11 17 -8 7 -14 8 -14 3z"/>
<path d="M7843 4774 c13 -4 17 -12 14 -25 -3 -10 -1 -19 5 -19 19 0 3 45 -17
47 -17 2 -17 1 -2 -3z"/>
<path d="M7800 4751 c0 -10 19 -25 25 -20 1 2 -3 10 -11 17 -8 7 -14 8 -14 3z"/>
<path d="M8281 4744 c0 -11 3 -14 6 -6 3 7 2 16 -1 19 -3 4 -6 -2 -5 -13z"/>
<path d="M7622 3778 c-18 -18 -15 -54 6 -69 14 -11 15 -11 5 1 -16 18 -17 52
-1 68 7 7 10 12 7 12 -3 0 -10 -5 -17 -12z"/>
<path d="M7678 3778 c16 -20 12 -64 -6 -60 -6 1 -12 -2 -12 -8 0 -16 27 -11
34 6 11 28 6 51 -11 65 -16 13 -17 12 -5 -3z"/>
<path d="M7950 3745 c0 -27 2 -46 5 -43 8 8 9 77 2 85 -4 3 -7 -15 -7 -42z"/>
<path d="M7830 3742 c0 -23 3 -42 8 -42 9 0 8 68 -2 77 -3 3 -6 -12 -6 -35z"/>
<path d="M7910 3742 c0 -23 3 -42 8 -42 9 0 8 68 -2 77 -3 3 -6 -12 -6 -35z"/>
<path d="M7720 3735 c0 -19 4 -35 8 -35 4 0 6 16 4 35 -2 19 -6 35 -8 35 -2 0
-4 -16 -4 -35z"/>
<path d="M7803 3735 c0 -22 2 -30 4 -17 2 12 2 30 0 40 -3 9 -5 -1 -4 -23z"/>
<path d="M8313 3735 c0 -22 2 -30 4 -17 2 12 2 30 0 40 -3 9 -5 -1 -4 -23z"/>
<path d="M7768 3735 c-6 -30 -3 -43 8 -33 3 4 4 19 2 35 l-3 28 -7 -30z"/>
<path d="M7999 3728 c4 -28 6 -29 9 -9 2 13 0 27 -5 32 -6 6 -7 -3 -4 -23z"/>
<path d="M8030 3736 c0 -14 4 -27 8 -30 5 -3 6 8 4 25 -5 35 -12 38 -12 5z"/>
<path d="M8076 3747 c3 -10 9 -15 12 -12 3 3 0 11 -7 18 -10 9 -11 8 -5 -6z"/>
<path d="M8150 3736 c0 -14 4 -27 8 -30 5 -3 6 8 4 25 -5 35 -12 38 -12 5z"/>
<path d="M8194 3714 c-1 -30 2 -41 7 -33 11 17 12 79 2 79 -5 0 -9 -21 -9 -46z"/>
<path d="M8272 3730 c1 -16 5 -30 10 -30 11 0 10 47 -1 55 -5 3 -9 -8 -9 -25z"/>
<path d="M8350 3728 c0 -36 4 -35 14 5 4 16 2 27 -4 27 -5 0 -10 -14 -10 -32z"/>
<path d="M8399 3728 c4 -28 6 -29 9 -9 2 13 0 27 -5 32 -6 6 -7 -3 -4 -23z"/>
<path d="M8430 3736 c0 -14 4 -27 8 -30 5 -3 6 8 4 25 -5 35 -12 38 -12 5z"/>
<path d="M8476 3747 c3 -10 9 -15 12 -12 3 3 0 11 -7 18 -10 9 -11 8 -5 -6z"/>
<path d="M8231 3714 c0 -11 3 -14 6 -6 3 7 2 16 -1 19 -3 4 -6 -2 -5 -13z"/>
<path d="M4210 2214 c0 -8 5 -12 10 -9 6 4 8 11 5 16 -9 14 -15 11 -15 -7z"/>
<path d="M610 3780 c0 -11 5 -20 10 -20 6 0 10 9 10 20 0 11 -4 20 -10 20 -5
0 -10 -9 -10 -20z"/>
<path d="M13710 3260 c0 -11 5 -20 10 -20 6 0 10 9 10 20 0 11 -4 20 -10 20
-5 0 -10 -9 -10 -20z"/>
<path d="M1140 2480 c0 -11 4 -20 9 -20 5 0 7 9 4 20 -3 11 -7 20 -9 20 -2 0
-4 -9 -4 -20z"/>
<path d="M14210 1400 c0 -11 5 -20 10 -20 6 0 10 9 10 20 0 11 -4 20 -10 20
-5 0 -10 -9 -10 -20z"/>
<path d="M2200 600 c0 -11 5 -20 10 -20 6 0 10 9 10 20 0 11 -4 20 -10 20 -5
0 -10 -9 -10 -20z"/>
<path d="M5810 610 c0 -11 5 -20 10 -20 6 0 10 9 10 20 0 11 -4 20 -10 20 -5
0 -10 -9 -10 -20z"/>
<path d="M3810 600 c0 -11 5 -20 10 -20 6 0 10 9 10 20 0 11 -4 20 -10 20 -5
0 -10 -9 -10 -20z"/>
<path d="M7720 600 c0 -11 5 -20 10 -20 6 0 10 9 10 20 0 11 -4 20 -10 20 -5
0 -10 -9 -10 -20z"/>
<path d="M8520 595 c0 -8 5 -15 10 -15 6 0 10 7 10 15 0 8 -4 15 -10 15 -5 0
-10 -7 -10 -15z"/>
</g>
</svg>
