<?xml version="1.0" standalone="no"?>
<!DOCTYPE svg PUBLIC "-//W3C//DTD SVG 20010904//EN"
 "http://www.w3.org/TR/2001/REC-SVG-20010904/DTD/svg10.dtd">
<svg version="1.0" xmlns="http://www.w3.org/2000/svg"
 width="1613.000000pt" height="903.000000pt" viewBox="0 0 1613.000000 903.000000"
 preserveAspectRatio="xMidYMid meet">

<g transform="translate(0.000000,903.000000) scale(0.100000,-0.100000)"
fill="#000000" stroke="none">
<path d="M0 4515 l0 -4515 8065 0 8065 0 0 4515 c0 3003 -3 4515 -10 4515 -7
0 -10 -157 -10 -450 0 -292 -3 -450 -10 -451 -33 -4 -78 -27 -87 -44 -7 -12
-29 -16 -86 -19 -42 -2 -83 -9 -91 -15 -12 -10 -21 -8 -48 12 -36 27 -81 32
-99 11 -6 -8 -18 -14 -25 -14 -8 0 -14 -4 -14 -10 0 -5 -3 -9 -7 -8 -5 1 -19
-2 -32 -6 -19 -7 -28 -4 -41 11 -23 29 -68 56 -80 48 -5 -3 -10 -1 -10 6 0 8
-17 10 -61 6 -44 -4 -62 -2 -65 8 -6 15 -74 15 -74 -1 0 -8 -30 -11 -89 -10
-82 1 -91 -1 -116 -24 -26 -25 -27 -25 -41 -5 -12 16 -16 17 -23 6 -7 -11 -10
-9 -15 7 -18 56 -130 84 -142 36 -6 -22 -6 -23 -26 -4 -37 35 -142 37 -192 4
-16 -10 -38 -20 -50 -21 -12 -2 -28 -6 -36 -10 -8 -3 -21 -5 -28 -4 -8 1 -20
-6 -27 -16 -12 -16 -14 -16 -20 -2 -6 17 -55 24 -55 8 0 -11 -34 -12 -44 -2
-13 14 -66 9 -81 -7 -15 -17 -41 -20 -62 -7 -20 12 -134 -1 -152 -17 -13 -12
-25 -14 -49 -7 -20 6 -34 6 -38 0 -3 -6 -21 6 -40 25 -31 32 -38 35 -89 34
-30 -1 -58 1 -62 5 -10 11 -91 8 -98 -3 -4 -6 -11 -8 -16 -5 -5 4 -12 -1 -15
-9 -3 -9 -14 -16 -24 -16 -10 0 -22 -9 -25 -21 -5 -16 -12 -19 -28 -14 -12 4
-40 8 -61 9 -30 1 -41 6 -49 23 -8 17 -17 21 -44 19 -19 -1 -36 2 -40 6 -3 5
-11 7 -19 4 -7 -3 -16 -1 -19 4 -9 15 -65 12 -65 -2 0 -9 -3 -9 -9 1 -7 12
-13 12 -24 3 -7 -7 -17 -8 -21 -4 -4 4 -13 -1 -20 -10 -10 -13 -31 -19 -84
-21 -39 -2 -78 -10 -87 -17 -10 -8 -19 -9 -27 -2 -7 5 -40 10 -72 11 -38 1
-66 7 -76 16 -10 9 -25 13 -34 9 -9 -3 -16 -1 -16 4 0 14 -81 13 -98 -1 -7 -5
-15 -7 -18 -4 -4 3 -13 0 -20 -8 -18 -18 -45 -9 -37 12 5 13 2 15 -15 11 -12
-4 -25 -2 -28 3 -8 14 -66 11 -113 -6 -22 -8 -41 -12 -41 -9 0 2 -18 -7 -40
-21 -22 -14 -40 -22 -40 -19 0 4 -9 -1 -20 -11 -16 -14 -20 -15 -20 -4 0 8 -8
16 -17 17 -92 11 -123 21 -116 39 4 9 0 14 -8 12 -15 -2 -42 6 -72 22 -10 5
-22 7 -27 4 -5 -3 -11 -1 -14 4 -10 16 -103 7 -124 -12 -10 -9 -26 -17 -34
-17 -9 0 -18 -9 -21 -20 -5 -19 -11 -20 -59 -15 -39 5 -60 14 -78 33 -35 38
-75 40 -101 8 -15 -19 -26 -25 -44 -20 -12 3 -26 1 -29 -5 -4 -6 -16 -11 -27
-11 -12 0 -19 -7 -19 -20 0 -26 -3 -25 -41 10 -21 18 -36 26 -40 19 -4 -7 -9
-5 -12 6 -4 9 -12 15 -19 14 -34 -4 -59 3 -76 21 -15 17 -27 20 -58 15 -47 -7
-52 -7 -133 0 -53 4 -62 3 -57 -10 3 -8 1 -15 -3 -15 -5 0 -11 5 -13 12 -3 7
-12 6 -30 -6 -25 -16 -28 -16 -51 -1 -18 11 -27 13 -32 5 -5 -8 -10 -8 -20 0
-10 9 -23 3 -54 -26 -40 -36 -42 -36 -61 -19 -11 10 -20 15 -20 10 0 -4 -6 -3
-12 3 -20 16 -124 7 -143 -12 -10 -10 -27 -14 -48 -12 -18 3 -35 5 -39 5 -4 1
-5 8 -2 16 4 11 -1 15 -17 15 -13 -1 -38 2 -56 6 -32 6 -93 -13 -93 -29 0 -5
-3 -6 -7 -4 -16 10 -54 -13 -51 -30 3 -16 -4 -18 -47 -15 -27 2 -55 10 -61 18
-13 16 -106 29 -132 19 -25 -11 -52 -13 -52 -3 0 4 -9 8 -19 8 -11 0 -22 6
-24 13 -4 9 -8 9 -15 -2 -7 -10 -11 -10 -17 -1 -5 8 -11 7 -23 -3 -23 -20
-109 -15 -126 8 -12 17 -81 22 -159 12 -22 -3 -56 1 -78 8 -25 9 -39 10 -39 4
0 -6 -6 -9 -13 -6 -6 2 -11 11 -9 20 2 12 -5 15 -32 14 -38 -3 -79 -34 -72
-54 3 -7 -1 -13 -10 -13 -8 0 -18 -10 -23 -23 -8 -20 -14 -22 -56 -19 -28 3
-49 10 -52 18 -3 8 -13 14 -23 14 -22 0 -36 17 -45 53 -10 38 -46 63 -93 65
-31 1 -41 -3 -51 -22 -12 -21 -38 -29 -51 -16 -36 36 -159 62 -186 39 -12 -10
-20 -7 -42 13 -37 33 -82 35 -111 4 -13 -14 -20 -29 -16 -35 3 -6 0 -11 -8
-11 -8 0 -25 -8 -38 -19 -13 -10 -41 -24 -63 -32 -22 -8 -42 -23 -47 -35 -11
-30 -24 -37 -39 -19 -15 18 -63 20 -91 4 -16 -8 -25 -7 -39 6 -10 9 -24 14
-29 10 -6 -3 -11 0 -11 8 0 10 -10 14 -32 14 -18 -1 -35 -4 -38 -8 -5 -7 -49
-12 -82 -10 -11 1 -15 6 -12 15 4 11 -6 16 -38 20 -36 5 -103 3 -103 -4 0 -7
-47 -5 -51 2 -3 5 -15 6 -25 3 -11 -4 -27 -1 -35 6 -22 18 -54 22 -54 6 0 -9
-2 -9 -9 1 -6 10 -10 10 -20 -2 -7 -8 -19 -12 -27 -9 -7 3 -16 -2 -20 -10 -3
-9 -11 -14 -19 -11 -7 3 -15 -2 -18 -10 -4 -11 -16 -14 -42 -11 -20 3 -46 0
-58 -7 -12 -7 -24 -13 -27 -13 -3 0 -15 -6 -26 -13 -18 -9 -24 -9 -34 3 -10
12 -16 13 -26 4 -11 -9 -14 -8 -14 1 0 7 -7 10 -15 7 -8 -4 -17 -2 -20 3 -8
12 -63 6 -78 -9 -6 -6 -26 -11 -44 -11 -25 0 -31 4 -27 15 4 10 0 15 -15 15
-13 0 -26 10 -33 25 -6 14 -17 25 -24 25 -7 0 -11 6 -8 14 11 28 -79 56 -103
32 -3 -2 -20 4 -38 14 -42 24 -109 23 -152 -1 -19 -11 -39 -17 -44 -13 -6 3
-28 7 -48 9 -32 3 -41 -1 -51 -21 -7 -13 -21 -26 -32 -30 -10 -3 -18 -9 -18
-14 0 -5 -16 -14 -35 -21 -19 -7 -35 -17 -35 -22 0 -6 -5 -5 -12 0 -7 6 -24 9
-38 8 -14 -1 -36 2 -50 8 -14 6 -29 12 -35 13 -5 1 -12 3 -15 4 -3 1 -24 4
-47 6 -30 3 -47 -1 -59 -14 -12 -11 -19 -13 -21 -5 -13 37 -43 59 -83 60 -27
1 -43 -3 -47 -12 -6 -17 -68 -36 -88 -29 -7 3 -16 1 -19 -5 -4 -6 -13 -8 -21
-4 -8 3 -15 1 -15 -5 0 -14 -41 -2 -47 14 -4 10 -25 12 -81 10 -66 -3 -80 -1
-99 17 -24 21 -118 33 -128 16 -3 -4 -11 -6 -18 -3 -8 3 -26 -5 -42 -18 -17
-14 -39 -21 -56 -20 -15 2 -30 -2 -34 -8 -5 -8 -17 -2 -37 17 -25 23 -39 28
-86 30 -31 1 -83 4 -115 7 -49 4 -61 2 -78 -15 -22 -22 -96 -30 -108 -11 -7
11 -28 11 -47 -1 -6 -3 -14 -3 -18 1 -4 4 -13 7 -19 7 -7 1 -29 5 -50 9 -30 7
-42 5 -56 -8 -14 -12 -21 -14 -26 -6 -5 8 -14 5 -30 -10 -20 -19 -26 -20 -44
-8 -12 7 -21 15 -21 18 0 3 -16 6 -35 6 -19 1 -35 -3 -35 -7 0 -5 -5 -9 -12
-9 -6 0 -22 -10 -35 -22 -14 -13 -27 -18 -31 -13 -9 13 -35 13 -44 0 -5 -6 -8
-6 -8 2 0 9 -7 8 -26 -2 -15 -7 -33 -11 -40 -8 -7 3 -27 -5 -43 -16 -32 -23
-51 -27 -51 -10 0 6 -6 9 -14 6 -7 -3 -22 7 -34 22 -16 22 -29 28 -61 29 -22
1 -43 -2 -46 -8 -3 -5 -12 -7 -20 -3 -9 3 -15 -1 -15 -8 0 -11 -2 -11 -10 1
-11 18 -92 20 -98 2 -2 -6 -10 -12 -18 -12 -8 0 -26 -7 -40 -16 -24 -16 -26
-16 -50 7 -21 19 -38 24 -87 26 -34 2 -80 5 -101 8 -22 3 -46 3 -55 -1 -32
-14 -59 -14 -71 1 -7 8 -20 15 -30 15 -9 0 -20 3 -23 6 -9 10 -97 11 -97 2 0
-5 -7 -8 -16 -8 -9 0 -23 -9 -32 -21 -14 -16 -29 -20 -79 -20 -35 0 -65 -5
-68 -9 -3 -5 -12 -7 -19 -4 -8 3 -17 1 -20 -5 -5 -7 -20 -2 -44 12 -46 29 -78
29 -119 -1 -18 -13 -33 -20 -33 -17 0 4 -11 0 -25 -9 -23 -15 -25 -15 -35 3
-16 32 -79 64 -130 67 -28 2 -52 -1 -55 -7 -5 -7 -14 -4 -27 8 -27 24 -85 26
-91 3 -3 -11 -13 -16 -28 -14 -13 1 -24 3 -24 5 0 7 -96 5 -101 -2 -3 -5 -10
-7 -15 -3 -6 3 -19 -3 -30 -15 -19 -20 -49 -19 -49 1 0 6 -6 8 -14 5 -9 -4
-21 5 -31 20 -12 18 -19 22 -25 13 -5 -8 -9 -5 -13 9 -7 29 -66 29 -90 0 -17
-19 -19 -19 -30 -5 -14 19 -147 35 -147 18 0 -5 -6 -9 -12 -9 -12 1 -58 -17
-111 -45 -10 -5 -22 -6 -27 -3 -5 3 -19 0 -30 -7 -16 -10 -22 -10 -28 -1 -8
12 -24 12 -54 -2 -10 -4 -26 -4 -35 1 -31 13 -67 11 -86 -5 -20 -16 -55 -22
-63 -10 -6 11 -103 9 -109 -2 -3 -4 -12 -6 -20 -3 -9 4 -18 -1 -21 -11 -4 -10
-13 -14 -23 -10 -27 11 -61 13 -67 3 -3 -5 -21 6 -39 25 -29 30 -40 35 -92 37
-144 8 -174 6 -184 -12 -6 -10 -16 -18 -24 -18 -8 0 -21 -10 -29 -22 -13 -18
-19 -20 -39 -11 -12 6 -35 9 -50 8 -19 -2 -33 4 -45 20 -11 14 -28 22 -47 22
-17 0 -39 4 -50 9 -11 5 -51 9 -88 9 -56 0 -72 -4 -83 -19 -11 -15 -26 -19
-69 -18 -30 0 -57 -4 -61 -9 -3 -5 -10 -7 -15 -3 -5 3 -16 1 -24 -6 -8 -7 -15
-7 -19 -1 -3 5 -30 9 -59 9 -59 -1 -97 8 -97 24 0 6 -9 8 -20 5 -11 -3 -23 -1
-26 4 -7 12 -91 11 -99 -1 -4 -6 -11 -7 -17 -4 -6 4 -13 2 -17 -4 -10 -17 -35
-18 -36 -2 0 8 -11 17 -25 21 -35 10 -110 11 -110 1 0 -4 -9 -9 -20 -10 -11
-1 -29 -3 -40 -4 -11 -1 -20 -6 -20 -10 0 -4 -4 -8 -10 -8 -7 0 -10 167 -10
480 0 420 -2 480 -15 480 -13 0 -15 -508 -15 -4515z m14770 3605 c0 -5 -5 -10
-11 -10 -5 0 -7 5 -4 10 3 6 8 10 11 10 2 0 4 -4 4 -10z m-13880 -40 c0 -5 -5
-10 -11 -10 -5 0 -7 5 -4 10 3 6 8 10 11 10 2 0 4 -4 4 -10z m837 -46 c-3 -3
-12 -4 -19 -1 -8 3 -5 6 6 6 11 1 17 -2 13 -5z m7857 -325 c-3 -5 -10 -7 -15
-3 -5 3 -7 10 -3 15 3 5 10 7 15 3 5 -3 7 -10 3 -15z m-3608 -543 c18 -19 18
-44 -1 -62 -13 -14 -17 -14 -30 0 -17 17 -20 46 -5 46 6 0 10 7 10 15 0 19 7
19 26 1z m8480 -1070 c16 -17 19 -46 4 -46 -5 0 -10 -7 -10 -15 0 -8 -4 -15
-10 -15 -5 0 -10 7 -10 15 0 8 -4 15 -10 15 -14 0 -12 28 3 45 15 18 16 18 33
1z m-10521 -665 c-4 -17 -13 -31 -20 -31 -19 0 -29 56 -13 74 21 23 42 -4 33
-43z m-2680 30 c7 -23 -4 -71 -16 -71 -5 0 -9 7 -9 15 0 8 -4 15 -10 15 -5 0
-10 7 -10 15 0 8 5 15 10 15 6 0 10 7 10 15 0 21 18 19 25 -4z m14685 -375 c0
-22 -18 -20 -23 2 -2 9 -2 2 0 -15 2 -19 -1 -33 -7 -33 -5 0 -10 7 -10 15 0 8
-4 15 -10 15 -5 0 -10 9 -10 20 0 11 7 20 15 20 8 0 15 5 15 11 0 6 7 4 15 -5
8 -8 15 -22 15 -30z m-14304 -40 c16 -17 19 -46 4 -46 -5 0 -10 -7 -10 -15 0
-19 -7 -19 -26 -1 -16 17 -19 46 -4 46 6 0 10 7 10 15 0 19 7 19 26 1z m5819
-395 c7 -23 -4 -71 -16 -71 -5 0 -9 7 -9 15 0 8 -4 15 -10 15 -14 0 -12 28 3
45 17 19 25 18 32 -4z m6741 -65 c18 -19 18 -44 -1 -62 -13 -14 -17 -14 -30 0
-17 17 -20 46 -5 46 6 0 10 7 10 15 0 19 7 19 26 1z m-13036 -60 c0 -11 -4
-27 -9 -35 -8 -12 -12 -12 -25 -2 -19 16 -20 37 -4 55 17 18 38 9 38 -18z
m14725 -387 c9 -29 -2 -69 -20 -69 -18 0 -33 52 -17 58 7 2 12 10 12 18 0 21
18 17 25 -7z m-9629 -86 c18 -24 17 -41 -1 -59 -13 -14 -17 -14 -30 0 -17 17
-20 46 -5 46 6 0 10 7 10 15 0 20 10 19 26 -2z m-4866 -86 c0 -26 -12 -47 -25
-47 -20 0 -29 39 -15 66 11 19 15 21 26 9 8 -7 14 -20 14 -28z m1475 -16 c7
-23 -4 -71 -16 -71 -5 0 -9 7 -9 15 0 8 -4 15 -10 15 -14 0 -12 28 3 45 17 19
25 18 32 -4z m50 -740 c7 -23 -4 -71 -16 -71 -5 0 -9 7 -9 15 0 8 -4 15 -10
15 -14 0 -12 28 3 45 17 19 25 18 32 -4z m3835 -265 c0 -22 -18 -20 -23 2 -2
9 -2 2 0 -15 5 -41 -13 -44 -22 -3 -8 36 12 64 32 44 7 -7 13 -20 13 -28z
m1006 20 c18 -19 18 -44 -1 -62 -13 -14 -17 -14 -30 0 -17 17 -20 46 -5 46 6
0 10 7 10 15 0 19 7 19 26 1z m-6027 -433 c9 -19 9 -29 2 -31 -6 -2 -11 -10
-11 -18 0 -8 -4 -14 -10 -14 -5 0 -10 7 -10 15 0 8 -4 15 -10 15 -14 0 -12 28
3 45 17 20 22 19 36 -12z m3776 -72 c7 -23 -4 -71 -16 -71 -12 0 -11 17 1 25
6 3 10 13 10 21 0 8 -4 14 -10 14 -5 0 -10 -9 -10 -20 0 -11 -4 -20 -10 -20
-5 0 -10 9 -10 20 0 11 5 20 10 20 6 0 10 7 10 15 0 21 18 19 25 -4z m8575 15
c0 -2 -7 -7 -16 -10 -8 -3 -12 -2 -9 4 6 10 25 14 25 6z m-6310 -30 c0 -3 -4
-8 -10 -11 -5 -3 -10 -1 -10 4 0 6 5 11 10 11 6 0 10 -2 10 -4z m-4920 -136
c0 -17 7 -20 40 -20 33 0 40 -3 40 -20 0 -13 7 -20 20 -20 18 0 20 -7 20 -60
0 -53 -2 -60 -20 -60 -17 0 -20 7 -20 40 0 33 -3 40 -20 40 -13 0 -20 7 -20
20 0 13 -7 20 -20 20 -17 0 -20 -7 -20 -40 0 -33 -3 -40 -20 -40 -13 0 -20 7
-20 20 0 13 -7 20 -20 20 -13 0 -20 7 -20 20 0 13 -7 20 -20 20 -13 0 -20 7
-20 20 0 13 -7 20 -20 20 -13 0 -20 7 -20 20 0 18 7 20 80 20 73 0 80 -2 80
-20z m-40 -200 c0 -13 7 -20 20 -20 13 0 20 7 20 20 0 13 7 20 20 20 13 0 20
-7 20 -20 0 -13 7 -20 20 -20 15 0 20 -7 20 -25 0 -18 -5 -25 -20 -25 -13 0
-20 -7 -20 -20 0 -17 -7 -20 -40 -20 -33 0 -40 3 -40 20 0 13 -7 20 -20 20
-15 0 -20 7 -20 25 0 18 -5 25 -20 25 -13 0 -20 7 -20 20 0 17 7 20 40 20 33
0 40 -3 40 -20z m9530 5 c0 -8 -7 -15 -15 -15 -8 0 -15 7 -15 15 0 8 7 15 15
15 8 0 15 -7 15 -15z m270 -80 c0 -8 -7 -15 -15 -15 -8 0 -15 7 -15 15 0 8 7
15 15 15 8 0 15 -7 15 -15z m-190 -25 c0 -5 -7 -10 -15 -10 -8 0 -15 5 -15 10
0 6 7 10 15 10 8 0 15 -4 15 -10z m50 -25 c0 -8 7 -15 15 -15 8 0 15 -7 15
-15 0 -9 9 -15 25 -15 14 0 25 -4 25 -10 0 -5 -11 -10 -25 -10 -14 0 -25 5
-25 10 0 6 -7 10 -15 10 -8 0 -15 7 -15 15 0 8 -4 15 -10 15 -5 0 -10 7 -10
15 0 8 5 15 10 15 6 0 10 -7 10 -15z m-9820 -85 c0 -53 -2 -60 -20 -60 -13 0
-20 -7 -20 -20 0 -17 -7 -20 -40 -20 -33 0 -40 3 -40 20 0 13 7 20 20 20 17 0
20 7 20 40 0 33 3 40 20 40 13 0 20 7 20 20 0 13 7 20 20 20 18 0 20 -7 20
-60z m360 40 c0 -13 7 -20 20 -20 17 0 20 -7 20 -40 0 -33 -3 -40 -20 -40 -13
0 -20 7 -20 20 0 13 -7 20 -20 20 -17 0 -20 -7 -20 -40 l0 -40 -40 0 c-33 0
-40 3 -40 20 0 13 7 20 20 20 13 0 20 7 20 20 0 13 7 20 20 20 17 0 20 7 20
40 0 33 3 40 20 40 13 0 20 -7 20 -20z m9620 -50 c0 -20 5 -30 15 -30 8 0 15
-4 15 -10 0 -5 7 -10 15 -10 8 0 15 -7 15 -15 0 -8 7 -15 15 -15 8 0 15 -5 15
-11 0 -14 25 -39 39 -39 6 0 11 -7 11 -15 0 -8 7 -15 15 -15 8 0 15 -6 15 -13
0 -7 9 -19 20 -27 11 -8 20 -25 20 -37 0 -16 -6 -23 -20 -23 -11 0 -20 5 -20
10 0 6 -7 10 -15 10 -8 0 -15 7 -15 15 0 8 -7 15 -15 15 -9 0 -15 9 -15 25 0
14 -4 25 -10 25 -5 0 -10 7 -10 15 0 8 -7 15 -15 15 -8 0 -15 5 -15 10 0 6 -7
10 -15 10 -8 0 -15 7 -15 15 0 8 -7 15 -15 15 -8 0 -15 5 -15 11 0 14 -25 39
-39 39 -6 0 -11 7 -11 15 0 8 7 15 15 15 8 0 15 7 15 15 0 8 5 15 10 15 6 0
10 -13 10 -30z m60 15 c0 -8 -7 -15 -15 -15 -8 0 -15 7 -15 15 0 8 7 15 15 15
8 0 15 -7 15 -15z m-9920 -65 l0 -40 -40 0 c-33 0 -40 3 -40 20 0 13 7 20 20
20 13 0 20 7 20 20 0 13 7 20 20 20 17 0 20 -7 20 -40z m9810 10 c0 -5 7 -10
15 -10 8 0 15 -7 15 -15 0 -8 5 -15 10 -15 6 0 10 -7 10 -15 0 -8 7 -15 15
-15 8 0 15 -4 15 -10 0 -5 7 -10 15 -10 8 0 15 -7 15 -15 0 -8 7 -15 15 -15 9
0 15 -9 15 -25 0 -14 5 -25 10 -25 6 0 10 -7 10 -15 0 -8 7 -15 15 -15 8 0 15
-7 15 -15 0 -8 5 -15 12 -15 6 0 9 -2 7 -5 -10 -9 -49 8 -49 21 0 8 -4 14 -10
14 -5 0 -10 7 -10 15 0 8 -7 15 -15 15 -8 0 -15 5 -15 10 0 6 -7 10 -15 10 -8
0 -15 7 -15 15 0 8 -7 15 -15 15 -8 0 -15 5 -15 11 0 14 -25 39 -39 39 -6 0
-11 7 -11 15 0 8 -7 15 -15 15 -9 0 -15 -9 -15 -25 0 -14 -4 -25 -10 -25 -5 0
-10 23 -10 50 0 47 2 50 25 50 14 0 25 -4 25 -10z m530 -20 c0 -5 16 -10 35
-10 19 0 35 -4 35 -10 0 -5 13 -10 30 -10 22 0 28 -4 24 -15 -4 -9 -19 -15
-40 -15 -19 0 -34 -4 -34 -10 0 -5 -5 -10 -11 -10 -18 0 -39 -27 -39 -50 0
-20 -1 -20 -25 5 -14 14 -35 25 -45 25 -11 0 -20 5 -20 10 0 6 -11 10 -25 10
-14 0 -25 5 -25 10 0 6 -11 10 -25 10 -14 0 -25 4 -25 10 0 5 11 12 25 16 14
3 25 10 25 15 0 5 7 9 15 9 8 0 15 5 15 10 0 6 25 10 55 10 30 0 55 -4 55 -10z
m-10060 -50 c0 -13 7 -20 20 -20 13 0 20 -7 20 -20 0 -13 7 -20 20 -20 18 0
20 -7 20 -60 l0 -60 -60 0 -60 0 0 40 c0 33 -3 40 -20 40 -17 0 -20 7 -20 40
0 33 3 40 20 40 13 0 20 7 20 20 0 13 7 20 20 20 13 0 20 -7 20 -20z m-440
-100 c0 -73 -2 -80 -20 -80 -13 0 -20 -7 -20 -20 0 -13 -7 -20 -20 -20 -13 0
-20 -7 -20 -20 0 -13 -7 -20 -20 -20 -19 0 -20 7 -20 120 l0 120 60 0 60 0 0
-80z m-644 46 c16 -17 19 -46 4 -46 -5 0 -10 -7 -10 -15 0 -8 -4 -15 -10 -15
-5 0 -10 7 -10 15 0 8 -4 15 -10 15 -14 0 -12 28 3 45 15 18 16 18 33 1z m884
-26 c0 -13 7 -20 20 -20 13 0 20 -7 20 -20 0 -18 -7 -20 -60 -20 -53 0 -60 2
-60 20 0 13 7 20 20 20 13 0 20 7 20 20 0 13 7 20 20 20 13 0 20 -7 20 -20z
m10164 -125 c8 -8 19 -15 25 -15 6 0 11 -4 11 -10 0 -5 7 -10 15 -10 10 0 15
-10 15 -31 0 -30 -19 -59 -39 -59 -6 0 -11 -4 -11 -9 0 -5 -25 -13 -55 -16
-30 -4 -55 -11 -55 -16 0 -5 -13 -9 -30 -9 -23 0 -30 -4 -30 -20 0 -11 -4 -20
-10 -20 -5 0 -10 7 -10 16 0 8 -18 33 -40 55 -22 22 -40 44 -40 49 0 5 -16 12
-35 16 -19 3 -35 10 -35 15 0 5 -7 9 -15 9 -8 0 -15 3 -15 6 0 12 30 34 47 34
10 0 29 7 43 14 37 21 243 21 264 1z m376 -25 c0 -5 11 -10 25 -10 14 0 25 -4
25 -10 0 -5 9 -10 20 -10 11 0 20 -5 20 -11 0 -6 -9 -13 -20 -16 -11 -3 -20
-9 -20 -14 0 -5 -9 -9 -20 -9 -11 0 -20 -4 -20 -10 0 -5 -5 -10 -11 -10 -7 0
-17 -7 -24 -16 -8 -12 -20 -15 -43 -9 -18 3 -32 11 -32 16 0 5 -7 9 -15 9 -8
0 -15 5 -15 10 0 6 -11 10 -25 10 -20 0 -25 5 -25 25 0 21 5 25 30 25 17 0 30
5 30 10 0 6 16 10 35 10 19 0 35 5 35 10 0 6 11 10 25 10 14 0 25 -4 25 -10z
m-50 -230 c0 -5 7 -10 15 -10 8 0 15 -4 15 -10 0 -5 11 -10 25 -10 16 0 25 -6
25 -15 0 -8 -7 -15 -15 -15 -8 0 -15 -4 -15 -10 0 -5 -7 -10 -15 -10 -8 0 -15
-4 -15 -10 0 -5 -15 -10 -32 -10 -25 0 -39 8 -57 30 -13 16 -27 27 -32 24 -5
-3 -9 4 -9 15 0 12 7 21 15 21 8 0 15 5 15 10 0 6 18 10 40 10 22 0 40 -4 40
-10z m301 -12 c26 -30 24 -36 -15 -44 -41 -7 -81 21 -70 49 9 25 63 22 85 -5z
m-9454 -90 c-3 -8 -6 -5 -6 6 -1 11 2 17 5 13 3 -3 4 -12 1 -19z m1550 -30
c-3 -8 -6 -5 -6 6 -1 11 2 17 5 13 3 -3 4 -12 1 -19z m7382 16 c17 -4 31 -11
31 -16 0 -13 -26 -38 -39 -38 -6 0 -11 -4 -11 -10 0 -5 -9 -10 -20 -10 -11 0
-20 5 -20 10 0 6 -9 10 -20 10 -11 0 -20 5 -20 10 0 6 7 10 15 10 8 0 15 9 15
20 0 22 15 25 69 14z m2985 -150 c8 -22 7 -47 -3 -63 -8 -12 -12 -12 -25 2
-18 17 -21 47 -6 47 6 0 10 7 10 15 0 20 16 19 24 -1z m-11284 -288 c0 -11 -4
-27 -9 -35 -8 -12 -12 -12 -25 2 -19 19 -20 31 -4 57 15 23 38 9 38 -24z
m-4014 -150 c23 -23 15 -76 -12 -76 -18 0 -29 47 -15 64 6 7 8 16 4 19 -3 4
-3 7 1 7 4 0 14 -6 22 -14z m2694 -30 c0 -11 -4 -27 -9 -35 -8 -12 -12 -12
-25 2 -19 19 -20 31 -4 57 15 23 38 9 38 -24z m10940 -5 c0 -25 -17 -28 -23
-3 -2 9 -3 5 -1 -10 2 -16 -1 -28 -6 -28 -16 0 -22 42 -10 66 11 19 15 21 26
9 8 -7 14 -23 14 -34z m-7994 25 c16 -17 19 -46 4 -46 -5 0 -10 -7 -10 -15 0
-8 -4 -15 -10 -15 -5 0 -10 4 -10 9 0 6 5 13 10 16 6 3 10 13 10 21 0 8 -4 14
-10 14 -5 0 -10 -9 -10 -20 0 -11 -4 -20 -10 -20 -5 0 -10 9 -10 20 0 11 5 20
10 20 6 0 10 7 10 15 0 19 7 19 26 1z m763 -16 c6 -18 6 -30 0 -30 -5 0 -9 -7
-9 -15 0 -19 -7 -19 -26 -1 -16 17 -19 46 -4 46 6 0 10 7 10 15 0 26 18 16 29
-15z m3156 -29 c-7 -35 -11 -37 -31 -17 -17 18 -18 30 -2 56 19 30 42 3 33
-39z m2931 45 c16 -17 19 -46 4 -46 -5 0 -10 -7 -10 -15 0 -8 -4 -15 -10 -15
-5 0 -10 7 -10 15 0 8 -4 15 -10 15 -14 0 -12 28 3 45 15 18 16 18 33 1z m763
-13 c9 -19 9 -29 2 -31 -6 -2 -11 -10 -11 -18 0 -8 -4 -14 -10 -14 -5 0 -10 6
-10 14 0 8 -6 16 -12 19 -10 3 -10 10 1 30 18 34 25 34 40 0z m1517 13 c16
-17 19 -46 4 -46 -5 0 -10 -7 -10 -15 0 -8 -4 -15 -10 -15 -5 0 -10 6 -10 14
0 8 -6 16 -12 19 -10 3 -10 10 1 30 17 31 18 32 37 13z"/>
<path d="M5950 7130 c0 -11 5 -20 10 -20 6 0 10 9 10 20 0 11 -4 20 -10 20 -5
0 -10 -9 -10 -20z"/>
<path d="M14430 6070 c0 -11 5 -20 10 -20 6 0 10 9 10 20 0 11 -4 20 -10 20
-5 0 -10 -9 -10 -20z"/>
<path d="M3910 5450 c0 -11 5 -20 10 -20 6 0 10 9 10 20 0 11 -4 20 -10 20 -5
0 -10 -9 -10 -20z"/>
<path d="M1230 5435 c0 -8 5 -15 10 -15 6 0 10 7 10 15 0 8 -4 15 -10 15 -5 0
-10 -7 -10 -15z"/>
<path d="M1610 5015 c0 -8 5 -15 10 -15 6 0 10 7 10 15 0 8 -4 15 -10 15 -5 0
-10 -7 -10 -15z"/>
<path d="M7430 4630 c0 -11 5 -20 10 -20 6 0 10 9 10 20 0 11 -4 20 -10 20 -5
0 -10 -9 -10 -20z"/>
<path d="M14170 4550 c0 -11 5 -20 10 -20 6 0 10 9 10 20 0 11 -4 20 -10 20
-5 0 -10 -9 -10 -20z"/>
<path d="M1130 4520 c0 -11 5 -20 10 -20 6 0 10 9 10 20 0 11 -4 20 -10 20 -5
0 -10 -9 -10 -20z"/>
<path d="M15860 4110 c0 -11 5 -20 10 -20 6 0 10 9 10 20 0 11 -4 20 -10 20
-5 0 -10 -9 -10 -20z"/>
<path d="M6230 4020 c0 -11 5 -20 10 -20 6 0 10 9 10 20 0 11 -4 20 -10 20 -5
0 -10 -9 -10 -20z"/>
<path d="M1360 3960 c0 -11 4 -20 9 -20 5 0 7 9 4 20 -3 11 -7 20 -9 20 -2 0
-4 -9 -4 -20z"/>
<path d="M2840 3930 c0 -11 5 -20 10 -20 6 0 10 9 10 20 0 11 -4 20 -10 20 -5
0 -10 -9 -10 -20z"/>
<path d="M2890 3190 c0 -11 5 -20 10 -20 6 0 10 9 10 20 0 11 -4 20 -10 20 -5
0 -10 -9 -10 -20z"/>
<path d="M7730 2930 c0 -11 5 -20 10 -20 6 0 10 9 10 20 0 11 -4 20 -10 20 -5
0 -10 -9 -10 -20z"/>
<path d="M1700 2520 c0 -11 5 -20 10 -20 6 0 10 9 10 20 0 11 -4 20 -10 20 -5
0 -10 -9 -10 -20z"/>
<path d="M2810 2270 c0 -13 7 -20 20 -20 13 0 20 7 20 20 0 13 -7 20 -20 20
-13 0 -20 -7 -20 -20z"/>
<path d="M1940 1700 c0 -11 5 -20 10 -20 6 0 10 9 10 20 0 11 -4 20 -10 20 -5
0 -10 -9 -10 -20z"/>
<path d="M16080 1020 c0 -11 5 -20 10 -20 6 0 10 9 10 20 0 11 -4 20 -10 20
-5 0 -10 -9 -10 -20z"/>
<path d="M4790 760 c0 -11 5 -20 10 -20 6 0 10 9 10 20 0 11 -4 20 -10 20 -5
0 -10 -9 -10 -20z"/>
<path d="M792 580 c0 -14 2 -19 5 -12 2 6 2 18 0 25 -3 6 -5 1 -5 -13z"/>
<path d="M3470 580 c0 -11 5 -20 10 -20 6 0 10 9 10 20 0 11 -4 20 -10 20 -5
0 -10 -9 -10 -20z"/>
<path d="M7185 587 c-4 -10 -5 -21 -1 -24 10 -10 18 4 13 24 -4 17 -4 17 -12
0z"/>
<path d="M10345 587 c-4 -10 -5 -21 -1 -24 10 -10 18 4 13 24 -4 17 -4 17 -12
0z"/>
<path d="M13270 580 c0 -11 5 -20 10 -20 6 0 10 9 10 20 0 11 -4 20 -10 20 -5
0 -10 -9 -10 -20z"/>
<path d="M14030 580 c0 -11 5 -20 10 -20 6 0 10 9 10 20 0 11 -4 20 -10 20 -5
0 -10 -9 -10 -20z"/>
<path d="M15550 580 c0 -11 5 -20 10 -20 6 0 10 9 10 20 0 11 -4 20 -10 20 -5
0 -10 -9 -10 -20z"/>
</g>
</svg>
