<?xml version="1.0" standalone="no"?>
<!DOCTYPE svg PUBLIC "-//W3C//DTD SVG 20010904//EN"
 "http://www.w3.org/TR/2001/REC-SVG-20010904/DTD/svg10.dtd">
<svg version="1.0" xmlns="http://www.w3.org/2000/svg"
 width="1611.000000pt" height="907.000000pt" viewBox="0 0 1611.000000 907.000000"
 preserveAspectRatio="xMidYMid meet">

<g transform="translate(0.000000,907.000000) scale(0.100000,-0.100000)"
fill="#000000" stroke="none">
<path d="M16090 8580 c0 -483 0 -490 -20 -490 -15 0 -20 7 -20 25 0 20 -5 25
-25 25 -20 0 -25 5 -25 25 0 20 5 25 25 25 23 0 25 3 25 50 0 47 -2 50 -25 50
-23 0 -25 -3 -25 -50 0 -43 -3 -50 -20 -50 -11 0 -20 5 -20 10 0 6 -11 10 -25
10 -14 0 -25 -4 -25 -10 0 -13 -97 -13 -102 0 -2 6 -1192 11 -3433 13 -1886 2
-3452 7 -3479 10 -32 5 -53 3 -63 -4 -11 -10 -19 -7 -41 13 -37 34 -82 35
-112 3 l-23 -25 -793 0 c-486 0 -795 4 -799 9 -7 12 -103 12 -111 0 -3 -5
-1420 -9 -3480 -9 l-3474 0 0 -2370 0 -2370 305 0 305 0 0 -99 c0 -75 4 -101
15 -111 13 -11 15 -80 15 -513 0 -443 -2 -499 -15 -481 -8 11 -14 41 -15 72 0
28 -4 52 -10 52 -6 0 -10 140 -10 400 0 281 -3 400 -11 400 -8 0 -10 -132 -7
-454 3 -415 4 -456 21 -473 9 -11 17 -25 17 -32 0 -6 7 -14 15 -17 10 -4 15
-20 15 -50 l0 -44 -320 0 -320 0 0 -1060 0 -1060 8055 0 8055 0 0 4535 c0
3017 -3 4535 -10 4535 -7 0 -10 -170 -10 -490z m-6543 -436 c-9 -9 -28 6 -21
18 4 6 10 6 17 -1 6 -6 8 -13 4 -17z m5203 16 c0 -5 -5 -10 -11 -10 -5 0 -7 5
-4 10 3 6 8 10 11 10 2 0 4 -4 4 -10z m-6153 -6 c-3 -3 -12 -4 -19 -1 -8 3 -5
6 6 6 11 1 17 -2 13 -5z m7213 -39 l0 -25 120 0 120 0 0 -25 c0 -18 5 -25 20
-25 15 0 20 -7 20 -25 0 -18 -5 -25 -20 -25 -15 0 -20 7 -20 25 0 23 -4 25
-44 25 l-44 0 -7 -50 -7 -50 -44 0 -44 0 0 -70 c0 -68 1 -70 25 -70 18 0 25 5
25 20 0 18 7 20 70 20 l70 0 0 30 c0 25 -4 30 -25 30 -18 0 -25 5 -25 20 0 15
7 20 25 20 18 0 25 -5 25 -20 0 -13 7 -20 20 -20 16 0 20 -7 20 -30 0 -23 -4
-30 -20 -30 -13 0 -20 -7 -20 -20 0 -18 -7 -20 -70 -20 l-70 0 0 -75 0 -75
-50 0 c-47 0 -50 2 -50 25 0 20 5 25 25 25 23 0 25 3 25 50 l0 50 -50 0 -50 0
0 170 0 170 25 0 c20 0 25 -5 25 -25z m-14940 5 c0 -5 -5 -10 -11 -10 -5 0 -7
5 -4 10 3 6 8 10 11 10 2 0 4 -4 4 -10z m3347 -6 c-3 -3 -12 -4 -19 -1 -8 3
-5 6 6 6 11 1 17 -2 13 -5z m5728 -4 c-3 -5 -10 -10 -16 -10 -5 0 -9 5 -9 10
0 6 7 10 16 10 8 0 12 -4 9 -10z m1585 -30 c0 -5 -5 -10 -11 -10 -5 0 -7 5 -4
10 3 6 8 10 11 10 2 0 4 -4 4 -10z m-9823 -6 c-3 -3 -12 -4 -19 -1 -8 3 -5 6
6 6 11 1 17 -2 13 -5z m7857 -325 c-3 -5 -10 -7 -15 -3 -5 3 -7 10 -3 15 3 5
10 7 15 3 5 -3 7 -10 3 -15z m6486 -24 c0 -20 -5 -25 -25 -25 -20 0 -25 -5
-25 -25 0 -20 -5 -25 -25 -25 -23 0 -25 3 -25 50 l0 50 50 0 c47 0 50 -2 50
-25z m-8340 -1375 l0 -100 -25 0 c-20 0 -25 -5 -25 -25 0 -18 -5 -25 -20 -25
-15 0 -20 7 -20 25 0 20 -5 25 -25 25 -20 0 -25 -5 -25 -25 0 -18 5 -25 20
-25 15 0 20 -7 20 -25 0 -18 -5 -25 -20 -25 -15 0 -20 7 -20 25 0 20 -5 25
-25 25 -24 0 -25 -2 -25 -75 0 -73 1 -75 25 -75 18 0 25 -5 25 -20 0 -17 -7
-20 -50 -20 -47 0 -50 2 -50 25 0 20 -5 25 -25 25 -18 0 -25 5 -25 20 0 13 -7
20 -20 20 -15 0 -20 7 -20 25 0 20 -5 25 -25 25 -20 0 -25 -5 -25 -25 0 -20
-5 -25 -25 -25 -23 0 -25 3 -25 50 l0 50 95 0 c95 0 95 0 95 25 0 23 3 25 50
25 47 0 50 2 50 25 0 23 4 25 45 25 l45 0 0 75 c0 73 1 75 25 75 l25 0 0 -100z
m-480 -194 c0 -39 -3 -45 -22 -48 -21 -3 -23 -8 -21 -50 3 -45 1 -48 -22 -48
-23 0 -25 -3 -25 -50 0 -47 2 -50 25 -50 23 0 25 4 25 45 l0 45 45 0 c38 0 45
-3 45 -20 0 -15 -7 -20 -25 -20 -23 0 -25 -3 -25 -50 0 -47 2 -50 25 -50 23 0
25 4 25 45 0 41 2 45 25 45 24 0 25 -2 25 -70 0 -68 -1 -70 -25 -70 -24 0 -25
-2 -25 -75 l0 -75 -45 0 c-41 0 -45 2 -45 25 0 18 5 25 20 25 18 0 20 7 20 75
0 74 0 75 -26 75 -26 0 -26 -1 -20 -50 7 -49 6 -50 -19 -50 -20 0 -25 -5 -25
-25 0 -20 -5 -25 -25 -25 -20 0 -25 -5 -25 -25 0 -20 -5 -25 -25 -25 -20 0
-25 -5 -25 -25 0 -23 -4 -25 -45 -25 -41 0 -45 -2 -45 -25 0 -20 -5 -25 -25
-25 -20 0 -25 -5 -25 -25 0 -20 -5 -25 -25 -25 -20 0 -25 -5 -25 -25 0 -20 5
-25 25 -25 20 0 25 -5 25 -25 0 -20 -5 -25 -25 -25 -20 0 -25 5 -25 25 0 23
-4 25 -45 25 -41 0 -45 -2 -45 -25 0 -24 -2 -25 -75 -25 l-75 0 0 -75 0 -75
-45 0 c-41 0 -45 2 -45 25 0 20 5 25 25 25 23 0 25 3 25 50 l0 50 -50 0 -50 0
0 175 0 175 25 0 c20 0 25 -5 25 -25 l0 -25 120 0 120 0 0 25 c0 20 -5 25 -25
25 -20 0 -25 5 -25 25 0 20 -5 25 -25 25 -18 0 -25 5 -25 20 0 15 7 20 25 20
18 0 25 -5 25 -20 0 -15 7 -20 25 -20 20 0 25 5 25 25 0 18 5 25 20 25 15 0
20 -7 20 -25 0 -20 5 -25 25 -25 20 0 25 5 25 25 0 18 -5 25 -20 25 -13 0 -20
7 -20 20 0 13 7 20 20 20 16 0 20 7 20 30 0 25 4 30 25 30 20 0 25 5 25 25 0
20 5 25 25 25 20 0 25 -5 25 -25 0 -20 -5 -25 -25 -25 -20 0 -25 -5 -25 -25 0
-20 5 -25 25 -25 18 0 25 5 25 19 0 13 8 21 23 23 19 3 22 10 25 51 3 39 6 47
23 47 14 0 19 -7 19 -25 0 -20 5 -25 25 -25 20 0 25 5 25 25 0 20 5 25 25 25
23 0 25 3 25 50 0 47 2 50 25 50 20 0 25 5 25 25 0 18 5 25 20 25 17 0 20 -7
20 -44z m-380 -31 c0 -23 3 -25 51 -25 47 0 50 -2 47 -22 -3 -21 -9 -23 -75
-26 l-73 -3 0 -44 c0 -38 -3 -45 -20 -45 -18 0 -20 7 -20 70 0 63 2 70 20 70
15 0 20 7 20 25 0 20 5 25 25 25 20 0 25 -5 25 -25z m240 -45 c0 -15 -7 -20
-25 -20 -18 0 -25 5 -25 20 0 15 7 20 25 20 18 0 25 -5 25 -20z m520 0 c0 -13
-7 -20 -20 -20 -13 0 -20 7 -20 20 0 13 7 20 20 20 13 0 20 -7 20 -20z m-280
-45 c0 -20 -5 -25 -25 -25 -20 0 -25 5 -25 25 0 20 5 25 25 25 20 0 25 -5 25
-25z m-620 -30 c0 -41 -2 -45 -25 -45 -23 0 -25 -3 -25 -50 0 -47 -2 -50 -25
-50 -20 0 -25 -5 -25 -25 0 -23 -4 -25 -45 -25 l-45 0 0 50 c0 47 2 50 25 50
20 0 25 5 25 25 0 18 5 25 20 25 17 0 20 7 20 45 l0 45 50 0 50 0 0 -45z m710
-30 c0 -20 5 -25 25 -25 18 0 25 -5 25 -20 0 -17 -7 -20 -45 -20 l-45 0 0 45
c0 38 3 45 20 45 15 0 20 -7 20 -25z m5160 -320 c0 -95 0 -95 -25 -95 -20 0
-25 -5 -25 -25 0 -18 -5 -25 -20 -25 -15 0 -20 -7 -20 -25 0 -20 -5 -25 -25
-25 -20 0 -25 5 -25 25 0 20 -5 25 -25 25 -24 0 -25 -2 -25 -75 0 -73 1 -75
25 -75 20 0 25 5 25 25 0 20 5 25 25 25 20 0 25 -5 25 -25 0 -20 -5 -25 -25
-25 -20 0 -25 -5 -25 -25 0 -23 -4 -25 -45 -25 -41 0 -45 2 -45 25 0 20 -5 25
-25 25 -20 0 -25 5 -25 25 0 20 -5 25 -25 25 -20 0 -25 5 -25 25 0 20 -5 25
-25 25 -20 0 -25 -5 -25 -25 0 -18 -5 -25 -20 -25 -17 0 -20 7 -20 50 l0 50
95 0 c88 0 95 1 95 20 0 17 7 20 45 20 38 0 45 -3 45 -20 0 -15 7 -20 25 -20
20 0 25 5 25 25 0 20 -5 25 -25 25 -18 0 -25 5 -25 20 0 17 7 20 50 20 l50 0
0 75 c0 68 2 75 20 75 19 0 20 -7 20 -95z m-9270 -25 l0 -100 -25 0 c-20 0
-25 -5 -25 -25 0 -18 -5 -25 -20 -25 -15 0 -20 -7 -20 -25 0 -20 -5 -25 -25
-25 -20 0 -25 5 -25 25 0 20 -5 25 -25 25 -24 0 -25 -2 -25 -75 0 -73 1 -75
25 -75 20 0 25 5 25 25 0 20 5 25 25 25 20 0 25 -5 25 -25 0 -20 -5 -25 -25
-25 -20 0 -25 -5 -25 -25 0 -23 -4 -25 -45 -25 -41 0 -45 2 -45 25 0 20 -5 25
-25 25 -20 0 -25 5 -25 25 0 20 -5 25 -25 25 -20 0 -25 5 -25 25 0 20 -5 25
-25 25 -20 0 -25 -5 -25 -25 0 -18 -5 -25 -20 -25 -17 0 -20 7 -20 50 l0 50
95 0 c95 0 95 0 95 25 0 23 4 25 45 25 41 0 45 2 45 25 0 23 3 25 50 25 l50 0
0 75 c0 68 2 75 20 75 19 0 20 -7 20 -100z m3830 -45 c0 -20 -5 -25 -25 -25
-20 0 -25 5 -25 25 0 20 5 25 25 25 20 0 25 -5 25 -25z m90 0 c0 -18 -5 -25
-20 -25 -15 0 -20 7 -20 25 0 18 5 25 20 25 15 0 20 -7 20 -25z m-140 -100 c0
-20 5 -25 25 -25 24 0 25 -2 25 -75 0 -73 -1 -75 -25 -75 -24 0 -25 2 -25 75
l0 75 -45 0 c-41 0 -45 2 -45 25 0 23 4 25 45 25 41 0 45 -2 45 -25z m5010
-25 c0 -43 -3 -50 -20 -50 -17 0 -20 -7 -20 -50 l0 -50 45 0 c41 0 45 2 45 25
0 20 5 25 25 25 20 0 25 -5 25 -25 0 -20 -5 -25 -25 -25 -20 0 -25 -5 -25 -25
0 -20 -5 -25 -25 -25 -23 0 -25 -3 -25 -50 0 -43 -3 -50 -20 -50 -17 0 -20 -7
-20 -50 0 -47 -2 -50 -25 -50 -20 0 -25 -5 -25 -25 0 -20 -5 -25 -25 -25 -20
0 -25 -5 -25 -25 0 -20 -5 -25 -25 -25 -20 0 -25 -5 -25 -25 0 -23 -4 -25 -45
-25 -41 0 -45 -2 -45 -25 0 -20 -5 -25 -25 -25 -18 0 -25 -5 -25 -20 0 -13 -7
-20 -20 -20 -13 0 -20 7 -20 20 0 15 -7 20 -25 20 -20 0 -25 5 -25 25 0 20 -5
25 -25 25 -20 0 -25 5 -25 25 0 23 -3 25 -50 25 l-50 0 0 -50 0 -50 -45 0 -45
0 0 -69 c0 -65 2 -70 23 -73 20 -3 22 -9 25 -75 l3 -73 -51 0 c-47 0 -50 2
-50 25 0 20 5 25 25 25 23 0 25 3 25 50 l0 50 -50 0 -50 0 0 170 0 170 25 0
c20 0 25 -5 25 -25 l0 -25 120 0 120 0 0 25 c0 20 -5 25 -25 25 -20 0 -25 5
-25 25 0 18 -5 25 -20 25 -15 0 -20 7 -20 25 0 18 5 25 20 25 15 0 20 -7 20
-25 0 -20 5 -25 25 -25 20 0 25 5 25 25 0 20 5 25 25 25 20 0 25 5 25 25 0 18
5 25 20 25 15 0 20 7 20 25 0 20 5 25 25 25 20 0 25 5 25 25 0 20 5 25 25 25
20 0 25 -5 25 -25 0 -20 5 -25 25 -25 23 0 25 3 25 50 0 43 3 50 20 50 15 0
20 -7 20 -25 0 -20 5 -25 25 -25 20 0 25 5 25 25 0 18 -5 25 -20 25 -15 0 -20
7 -20 25 0 18 5 25 20 25 15 0 20 -7 20 -25 0 -20 5 -25 25 -25 23 0 25 3 25
50 0 47 2 50 25 50 20 0 25 5 25 25 0 18 5 25 20 25 17 0 20 -7 20 -50z
m-9270 -30 c0 -43 -3 -50 -20 -50 -17 0 -20 -7 -20 -50 l0 -50 45 0 c38 0 45
-3 45 -19 0 -13 -8 -21 -22 -23 -20 -3 -23 -10 -26 -50 -3 -40 -6 -48 -23 -48
-16 0 -19 -7 -19 -50 0 -47 -2 -50 -25 -50 -24 0 -25 2 -25 70 0 68 1 70 25
70 23 0 25 3 25 50 0 47 -2 50 -25 50 -23 0 -25 -4 -25 -45 0 -38 -3 -45 -20
-45 -13 0 -20 7 -20 19 0 27 -12 32 -59 25 -31 -5 -41 -11 -41 -25 0 -14 -7
-19 -25 -19 -18 0 -25 5 -25 20 0 15 -7 20 -25 20 -20 0 -25 -5 -25 -25 0 -20
5 -25 25 -25 20 0 25 -5 25 -25 0 -24 2 -25 70 -25 l70 0 0 -45 c0 -38 -3 -45
-20 -45 -15 0 -20 7 -20 25 0 27 -5 28 -62 19 -28 -5 -38 -11 -38 -25 0 -14
-7 -19 -25 -19 -18 0 -25 5 -25 20 0 13 -7 20 -20 20 -13 0 -20 -7 -20 -20 0
-15 -7 -20 -25 -20 -34 0 -37 -47 -2 -52 14 -2 23 -11 25 -25 5 -33 42 -31 42
2 0 23 3 25 50 25 47 0 50 -2 50 -25 0 -33 37 -35 42 -2 2 14 11 23 26 25 14
2 22 10 22 23 0 14 7 19 25 19 18 0 25 -5 25 -20 0 -15 -7 -20 -25 -20 -20 0
-25 -5 -25 -25 0 -20 -5 -25 -25 -25 -20 0 -25 -5 -25 -25 0 -23 -4 -25 -45
-25 -41 0 -45 -2 -45 -25 0 -20 -5 -25 -25 -25 -20 0 -25 -5 -25 -25 0 -18 -5
-25 -20 -25 -15 0 -20 -7 -20 -25 0 -18 5 -25 20 -25 15 0 20 -7 20 -25 0 -18
-5 -25 -20 -25 -15 0 -20 7 -20 25 0 23 -3 25 -50 25 -47 0 -50 -2 -50 -25 0
-24 -2 -25 -70 -25 l-70 0 0 -75 0 -75 -50 0 c-47 0 -50 2 -50 25 0 20 5 25
25 25 23 0 25 3 25 50 l0 50 -50 0 -50 0 0 175 0 175 25 0 c20 0 25 -5 25 -24
0 -30 23 -34 149 -28 88 4 91 5 91 28 0 19 -5 24 -25 24 -20 0 -25 5 -25 25 0
18 -5 25 -20 25 -13 0 -20 7 -20 20 0 13 7 20 20 20 13 0 20 -7 20 -20 0 -15
7 -20 25 -20 18 0 25 5 25 20 0 15 7 20 25 20 18 0 25 -5 25 -20 0 -13 7 -20
20 -20 15 0 20 7 20 25 0 18 -5 25 -20 25 -13 0 -20 7 -20 20 0 13 7 20 20 20
13 0 20 -7 20 -20 0 -15 7 -20 25 -20 33 0 35 37 3 42 -17 2 -23 10 -23 28 0
18 6 26 23 28 14 2 22 10 22 23 0 14 7 19 25 19 20 0 25 -5 25 -25 0 -20 5
-25 25 -25 23 0 25 3 25 50 0 43 3 50 20 50 15 0 20 -7 20 -25 0 -20 5 -25 25
-25 20 0 25 5 25 25 0 18 -5 25 -20 25 -15 0 -20 7 -20 25 0 18 5 25 20 25 15
0 20 -7 20 -25 0 -20 5 -25 25 -25 23 0 25 3 25 50 0 47 2 50 25 50 20 0 25 5
25 25 0 18 5 25 20 25 17 0 20 -7 20 -50z m4160 5 c0 -18 -5 -25 -20 -25 -15
0 -20 7 -20 25 0 18 5 25 20 25 15 0 20 -7 20 -25z m240 0 c0 -18 -5 -25 -20
-25 -15 0 -20 7 -20 25 0 18 5 25 20 25 15 0 20 -7 20 -25z m4490 0 c0 -23 3
-25 50 -25 47 0 50 -2 50 -25 0 -24 -2 -25 -69 -25 l-69 0 -7 -50 c-6 -40 -11
-50 -26 -50 -17 0 -19 8 -19 75 0 73 1 75 25 75 20 0 25 5 25 25 0 18 5 25 20
25 15 0 20 -7 20 -25z m-9270 -30 c0 -23 3 -25 50 -25 47 0 50 -2 50 -25 0
-24 -2 -25 -69 -25 l-69 0 -6 -45 c-6 -36 -11 -45 -27 -45 -17 0 -19 7 -19 70
0 68 1 70 25 70 20 0 25 5 25 25 0 18 5 25 20 25 15 0 20 -7 20 -25z m4310
-70 c0 -20 -5 -25 -25 -25 -20 0 -25 -5 -25 -25 0 -20 -5 -25 -25 -25 -23 0
-25 3 -25 50 l0 50 50 0 c47 0 50 -2 50 -25z m140 0 c0 -20 5 -25 25 -25 20 0
25 5 25 25 0 23 4 25 45 25 l45 0 0 -50 c0 -47 -2 -50 -25 -50 -20 0 -25 5
-25 25 0 18 -5 25 -20 25 -15 0 -20 -7 -20 -25 0 -24 -2 -25 -75 -25 -73 0
-75 1 -75 25 0 20 5 25 25 25 20 0 25 5 25 25 0 20 5 25 25 25 20 0 25 -5 25
-25z m4680 -25 c0 -47 -2 -50 -25 -50 -23 0 -25 -3 -25 -50 0 -43 -3 -50 -20
-50 -15 0 -20 -7 -20 -25 0 -23 -3 -25 -50 -25 l-50 0 0 50 c0 47 2 50 25 50
20 0 25 5 25 25 0 20 5 25 25 25 23 0 25 3 25 50 l0 50 45 0 45 0 0 -50z
m-9270 -24 c0 -39 -3 -45 -22 -48 -20 -3 -23 -10 -26 -50 -3 -40 -6 -48 -23
-48 -14 0 -19 -7 -19 -24 0 -32 -11 -38 -59 -30 -41 7 -41 7 -41 50 0 40 2 44
25 44 20 0 25 5 25 25 0 20 5 25 25 25 23 0 25 3 25 50 l0 50 45 0 45 0 0 -44z
m620 18 c0 -21 -4 -25 -22 -22 -15 2 -24 11 -26 26 -3 18 1 22 22 22 21 0 26
-5 26 -26z m9370 -19 c0 -18 5 -25 20 -25 15 0 20 -7 20 -25 0 -23 -4 -25 -45
-25 l-45 0 0 50 c0 47 2 50 25 50 20 0 25 -5 25 -25z m-9270 -30 c0 -18 5 -25
20 -25 13 0 20 -7 20 -20 0 -17 -7 -20 -45 -20 l-45 0 0 45 c0 41 2 45 25 45
20 0 25 -5 25 -25z m9170 -70 c0 -73 -1 -75 -25 -75 -24 0 -25 -2 -25 -75 l0
-75 -45 0 c-41 0 -45 2 -45 25 0 20 5 25 25 25 24 0 25 2 25 75 0 67 2 75 19
75 15 0 20 10 26 50 6 40 11 50 26 50 17 0 19 -8 19 -75z m-9270 -25 c0 -68
-1 -70 -25 -70 -24 0 -25 -2 -25 -75 l0 -75 -45 0 c-41 0 -45 2 -45 25 0 20 5
25 25 25 24 0 25 2 25 70 0 62 2 70 19 70 15 0 20 10 26 50 6 40 11 50 26 50
17 0 19 -8 19 -70z m9080 -270 c0 -15 -7 -20 -25 -20 -18 0 -25 5 -25 20 0 15
7 20 25 20 18 0 25 -5 25 -20z m90 0 c0 -13 -7 -20 -20 -20 -13 0 -20 7 -20
20 0 13 7 20 20 20 13 0 20 -7 20 -20z m-9360 -25 c0 -20 -5 -25 -25 -25 -20
0 -25 5 -25 25 0 20 5 25 25 25 20 0 25 -5 25 -25z m90 0 c0 -18 -5 -25 -20
-25 -15 0 -20 7 -20 25 0 18 5 25 20 25 15 0 20 -7 20 -25z m8800 -30 c0 -23
3 -25 50 -25 43 0 50 -3 50 -19 0 -15 -10 -20 -50 -26 -40 -6 -50 -11 -50 -26
0 -17 -8 -19 -70 -19 -63 0 -70 2 -70 20 0 18 7 20 70 20 68 0 70 1 70 25 0
20 -5 25 -25 25 -20 0 -25 5 -25 25 0 20 5 25 25 25 20 0 25 -5 25 -25z m330
-45 c0 -17 -7 -20 -45 -20 -38 0 -45 3 -45 20 0 17 7 20 45 20 38 0 45 -3 45
-20z m-9270 -25 c0 -20 5 -25 25 -25 24 0 25 -2 25 -75 0 -73 -1 -75 -25 -75
-24 0 -25 2 -25 75 l0 75 -45 0 c-41 0 -45 -2 -45 -25 0 -20 -5 -25 -25 -25
-20 0 -25 5 -25 25 0 20 5 25 25 25 20 0 25 5 25 25 0 23 4 25 45 25 41 0 45
-2 45 -25z m9080 -25 c0 -13 -7 -20 -20 -20 -13 0 -20 7 -20 20 0 13 7 20 20
20 13 0 20 -7 20 -20z m100 0 c0 -15 -7 -20 -25 -20 -18 0 -25 5 -25 20 0 15
7 20 25 20 18 0 25 -5 25 -20z m140 -50 c0 -68 -1 -70 -25 -70 -24 0 -25 2
-25 70 0 68 1 70 25 70 24 0 25 -2 25 -70z m100 50 c0 -15 -7 -20 -25 -20 -18
0 -25 5 -25 20 0 15 7 20 25 20 18 0 25 -5 25 -20z m-9270 -25 c0 -20 -5 -25
-25 -25 -20 0 -25 5 -25 25 0 20 5 25 25 25 20 0 25 -5 25 -25z m8790 -70 c0
-20 -5 -25 -25 -25 -20 0 -25 -5 -25 -25 0 -20 -5 -25 -25 -25 -23 0 -25 4
-25 43 0 24 3 47 7 50 3 4 26 7 50 7 39 0 43 -2 43 -25z m140 0 c0 -20 5 -25
25 -25 20 0 25 5 25 26 0 24 2 25 48 22 l47 -3 3 -47 c3 -46 2 -48 -22 -48
-21 0 -26 5 -26 25 0 20 -5 25 -25 25 -20 0 -25 -5 -25 -25 0 -24 -2 -25 -70
-25 -68 0 -70 1 -70 25 0 18 5 25 20 25 13 0 20 7 20 18 0 24 8 32 32 32 13 0
18 -7 18 -25z m-9410 -30 c0 -20 -5 -25 -25 -25 -20 0 -25 -5 -25 -25 0 -20
-5 -25 -25 -25 -23 0 -25 3 -25 50 l0 50 50 0 c47 0 50 -2 50 -25z m140 0 c0
-20 5 -25 25 -25 20 0 25 5 25 25 0 23 3 25 50 25 l50 0 0 -50 c0 -47 -2 -50
-25 -50 -20 0 -25 5 -25 25 0 20 -5 25 -25 25 -20 0 -25 -5 -25 -25 0 -24 -2
-25 -70 -25 -68 0 -70 1 -70 25 0 18 5 25 20 25 15 0 20 7 20 25 0 20 5 25 25
25 20 0 25 -5 25 -25z m12680 -1170 c0 -37 -4 -65 -10 -65 -11 0 -14 113 -3
123 12 13 13 7 13 -58z m-12403 -37 c-2 -18 -4 -4 -4 32 0 36 2 50 4 33 2 -18
2 -48 0 -65z m-2137 -112 c-7 -7 -10 16 -10 75 0 111 14 125 18 18 2 -48 -2
-87 -8 -93z m90 -172 c0 -272 -3 -345 -12 -342 -10 4 -14 84 -16 346 -2 300 0
342 13 342 13 0 15 -44 15 -346z m78 -18 c2 -346 3 -360 22 -373 19 -14 20
-26 20 -314 l0 -299 -70 0 -70 0 0 310 c0 299 1 310 20 322 19 12 20 24 20
359 0 190 3 349 7 353 4 4 16 6 28 4 20 -3 20 -9 23 -362z m52 319 c0 -33 -4
-45 -15 -45 -11 0 -15 11 -15 38 0 21 3 42 7 45 16 16 23 4 23 -38z m287 13
c-3 -7 -5 -2 -5 12 0 14 2 19 5 13 2 -7 2 -19 0 -25z m521 -80 l3 -108 -31 0
c-16 0 -30 -4 -30 -10 0 -5 -9 -10 -20 -10 -11 0 -20 -4 -20 -8 0 -4 -15 -16
-32 -26 -44 -25 -88 -67 -88 -83 0 -7 -9 -17 -20 -23 -14 -7 -20 -21 -20 -43
0 -18 -7 -45 -15 -61 -16 -30 -21 -126 -6 -126 5 0 12 -21 16 -47 4 -26 18
-61 31 -78 13 -18 24 -35 24 -38 0 -11 39 -47 50 -47 6 0 10 -4 10 -8 0 -4 14
-16 30 -25 25 -15 30 -24 30 -58 0 -21 5 -39 10 -39 6 0 10 -5 10 -11 0 -6 -7
-8 -16 -5 -9 4 -23 1 -30 -5 -7 -6 -18 -8 -24 -4 -6 3 -25 -3 -44 -14 -18 -11
-35 -18 -38 -15 -3 2 -31 -9 -62 -27 -32 -17 -60 -28 -63 -25 -3 3 -23 -10
-45 -29 -21 -19 -43 -35 -50 -35 -6 0 -28 -19 -50 -42 -21 -23 -40 -39 -43
-36 -3 2 -2 191 2 419 l8 414 22 3 c22 3 23 8 25 130 3 123 4 127 26 130 18 3
22 10 22 38 0 19 5 34 11 34 8 0 7 5 -1 15 -11 14 11 15 201 13 l214 -3 3
-107z m342 -55 c0 -112 -4 -163 -10 -153 -16 24 -10 320 6 320 2 0 4 -75 4
-167z m730 117 c0 -39 4 -52 20 -60 19 -10 20 -21 20 -370 l0 -359 58 -3 57
-3 6 -135 c4 -74 7 -136 8 -137 0 -2 19 -3 41 -3 33 0 40 -3 40 -20 0 -13 7
-20 20 -20 18 0 20 -7 20 -60 0 -53 -2 -60 -20 -60 -17 0 -20 7 -20 40 0 33
-3 40 -20 40 -13 0 -20 7 -20 20 0 13 -7 20 -20 20 -17 0 -20 -7 -20 -40 0
-33 -3 -40 -20 -40 -13 0 -20 7 -20 20 0 13 -7 20 -20 20 -13 0 -20 7 -20 20
0 13 -7 20 -20 20 -13 0 -20 7 -20 20 0 13 -7 20 -20 20 -13 0 -20 -7 -20 -20
0 -13 -7 -20 -20 -20 -19 0 -20 -7 -20 -95 l0 -95 -164 0 -164 0 -41 60 c-23
33 -41 64 -41 69 0 5 -16 21 -35 35 l-35 27 0 300 0 299 23 0 c43 0 47 15 47
177 0 144 1 153 21 163 18 10 20 19 17 73 l-3 62 32 -1 c30 -2 32 1 35 34 4
47 15 50 196 51 l142 1 0 -50z m110 -190 l0 -240 25 -6 25 -6 0 -154 c0 -145
-1 -154 -19 -154 -53 0 -51 -19 -51 406 0 256 4 394 10 394 6 0 10 -87 10
-240z m300 186 c0 -19 -5 -26 -20 -26 -16 0 -20 7 -20 33 0 19 3 36 6 40 11
11 34 -21 34 -47z m540 35 c0 -10 7 -24 15 -31 8 -7 15 -25 15 -41 0 -16 5
-29 10 -29 6 0 10 27 10 60 0 60 0 60 30 60 l30 0 -2 -107 c-1 -159 -1 -164
21 -170 11 -3 22 -15 25 -26 3 -12 6 -138 6 -279 l0 -258 40 0 c29 0 40 -4 40
-15 0 -8 5 -15 10 -15 6 0 10 -87 10 -240 l0 -240 -275 0 -275 0 0 124 c0 73
4 127 10 131 6 4 10 124 10 327 0 177 -3 319 -6 315 -4 -3 -13 0 -20 8 -11 10
-14 53 -14 189 0 111 -4 176 -10 176 -6 0 -10 -133 -10 -377 0 -208 -3 -388
-6 -400 -17 -63 -24 15 -24 268 0 179 -4 279 -10 279 -6 0 -10 -101 -10 -283
0 -271 1 -285 20 -302 19 -17 20 -31 20 -237 l0 -218 -55 0 -55 0 0 141 c0
132 1 141 20 146 19 5 20 14 20 284 0 174 -4 280 -10 284 -7 4 -10 -88 -10
-269 0 -152 -4 -276 -8 -276 -29 0 -32 30 -32 298 0 259 1 275 20 299 21 26
28 93 10 93 -5 0 -10 -10 -10 -22 0 -13 -4 -30 -9 -37 -8 -12 -11 -10 -15 10
-8 39 -18 378 -11 389 4 6 94 10 246 10 227 0 239 -1 239 -19z m160 -106 c0
-77 -4 -125 -10 -125 -6 0 -10 46 -10 118 0 104 4 132 17 132 2 0 3 -56 3
-125z m98 -283 l2 -402 -26 0 -25 0 3 393 c2 215 7 398 11 405 5 7 14 11 20 9
9 -3 13 -112 15 -405z m938 188 c1 -118 0 -205 -3 -193 -2 12 -11 27 -19 33
-8 7 -14 19 -14 27 0 7 -7 16 -15 19 -12 5 -15 34 -15 171 l0 164 33 -3 32 -3
1 -215z m104 190 c0 -23 -4 -30 -20 -30 -16 0 -20 7 -20 30 0 23 4 30 20 30
16 0 20 -7 20 -30z m365 21 c25 -5 31 -12 35 -41 4 -31 9 -35 38 -38 l32 -3 0
-63 c0 -55 3 -64 20 -69 18 -5 20 -15 22 -163 l3 -159 35 -5 35 -5 3 -397 2
-398 -178 0 c-184 0 -202 4 -202 42 0 10 -4 18 -10 18 -5 0 -10 -13 -10 -30 0
-20 -5 -30 -15 -30 -11 0 -15 11 -15 40 0 22 -4 40 -10 40 -5 0 -10 -18 -10
-40 0 -39 -1 -40 -36 -40 -35 0 -36 1 -31 33 8 49 21 90 34 112 12 19 14 19
27 3 7 -10 16 -18 20 -18 12 0 6 28 -9 40 -23 19 -18 43 15 75 32 30 41 75 15
75 -9 0 -15 -9 -15 -24 0 -13 -7 -29 -15 -36 -13 -11 -15 -5 -15 44 0 31 -4
56 -10 56 -5 0 -10 -25 -10 -55 0 -39 -4 -54 -12 -52 -9 1 -14 -14 -16 -43 -3
-40 -14 -59 -34 -60 -5 0 -8 39 -8 87 l0 86 40 34 40 35 0 104 c0 116 -17 144
-23 37 -3 -57 -3 -52 -5 30 -3 127 -22 130 -22 3 0 -71 4 -97 15 -106 21 -17
19 -33 -7 -57 -50 -44 -55 -39 -62 60 -6 77 -5 93 8 103 17 12 22 79 7 89 -6
3 -12 -14 -14 -37 -3 -35 -4 -32 -5 18 -2 44 2 65 13 74 16 13 21 80 6 80 -6
0 -12 -15 -14 -32 -2 -18 -5 -5 -5 30 -3 93 -22 67 -23 -31 -1 -45 -5 -116 -8
-157 -6 -72 -7 -70 -14 70 -5 80 -7 242 -5 360 l3 215 38 3 37 3 0 50 0 49
148 -1 c81 -1 161 -4 177 -8z m225 -252 l0 -250 -22 3 c-23 3 -23 5 -26 172
-2 144 0 171 13 178 11 7 15 27 15 84 0 48 4 73 10 69 6 -4 10 -100 10 -256z
m229 220 l5 -34 6 40 c4 22 7 -142 6 -365 l-1 -405 -22 -3 -23 -3 0 406 c0
321 3 406 13 403 6 -3 14 -20 16 -39z m91 -82 c0 -111 -2 -126 -20 -142 -20
-18 -20 -17 -20 123 0 135 1 142 20 142 19 0 20 -7 20 -123z m90 65 c0 -45 -5
-63 -20 -80 -27 -28 -13 -29 17 0 13 12 23 33 23 48 0 15 3 42 6 59 l7 31 262
0 262 0 1 -42 c2 -46 7 -54 37 -60 19 -3 20 -12 23 -131 l3 -127 24 0 25 0 0
-495 0 -495 -440 0 -440 0 0 238 c1 257 4 272 54 272 l26 0 0 263 0 263 29 28
c16 15 31 40 34 54 2 15 8 36 12 46 6 14 5 17 -3 12 -9 -5 -12 9 -12 48 0 31
5 56 10 56 6 0 10 16 10 35 0 31 3 35 25 35 24 0 25 -3 25 -58z m620 12 c0
-27 -4 -34 -20 -34 -15 0 -20 7 -20 28 0 29 17 55 32 46 4 -3 8 -21 8 -40z
m37 14 c-3 -7 -5 -2 -5 12 0 14 2 19 5 13 2 -7 2 -19 0 -25z m232 -754 c-6 -8
-20 -14 -30 -14 -18 0 -19 10 -19 154 0 153 0 155 23 158 22 3 22 3 27 248 5
231 5 223 8 -144 1 -279 -1 -393 -9 -402z m91 741 c0 -38 -3 -45 -20 -45 -17
0 -20 7 -20 45 0 38 3 45 20 45 17 0 20 -7 20 -45z m302 -11 c-3 -45 -1 -52
17 -57 17 -4 21 -13 21 -51 0 -25 -4 -46 -10 -46 -5 0 -10 20 -10 45 0 33 -4
45 -15 45 -11 0 -15 -12 -15 -50 0 -45 -2 -50 -22 -50 -13 0 -34 -9 -48 -20
-14 -11 -31 -20 -37 -20 -7 0 -13 -4 -13 -9 0 -5 -9 -11 -21 -14 -11 -3 -23
-15 -26 -26 -3 -12 -11 -21 -18 -21 -16 0 -50 -54 -60 -95 -3 -16 -12 -33 -18
-37 -16 -10 -16 -186 -1 -196 6 -4 17 -25 25 -47 7 -22 26 -52 41 -68 16 -15
28 -31 28 -35 0 -5 11 -14 25 -20 14 -6 25 -16 25 -21 0 -5 20 -14 45 -20 44
-11 45 -12 45 -52 0 -35 -2 -39 -14 -30 -9 8 -16 8 -20 2 -4 -5 3 -12 14 -16
16 -5 20 -15 20 -55 0 -42 -4 -51 -35 -79 -20 -17 -40 -31 -45 -31 -22 0 -180
-184 -180 -209 0 -7 -26 -11 -70 -11 l-70 0 0 255 0 255 50 0 50 0 2 363 3
362 23 3 c19 3 22 9 22 51 0 26 3 51 7 55 4 3 70 5 147 4 l141 -3 -3 -51z
m396 13 c2 -28 -1 -37 -12 -37 -12 0 -16 11 -16 41 0 52 24 48 28 -4z m72 33
c8 6 48 10 87 10 l73 0 2 -506 c2 -278 -1 -508 -5 -511 -4 -3 -19 2 -32 11
-13 9 -36 16 -50 16 -14 0 -25 5 -25 10 0 15 -26 12 -39 -4 -11 -13 -15 -12
-32 2 -12 10 -39 18 -67 18 -26 1 -50 2 -54 3 -5 1 -8 35 -8 76 0 62 4 79 20
95 11 11 20 24 20 28 0 4 11 23 24 41 45 60 44 282 -1 335 -16 19 -17 36 -13
151 5 125 6 130 28 133 17 3 22 10 22 32 0 16 4 31 10 35 5 3 6 13 3 23 -6 14
-4 15 8 5 9 -8 20 -9 29 -3z m586 -97 c2 -48 3 -105 4 -126 0 -31 5 -39 25
-47 l25 -10 0 -275 0 -275 40 0 c29 0 40 -4 40 -15 0 -8 5 -15 10 -15 6 0 10
-87 10 -240 l0 -240 -100 0 c-69 0 -100 4 -100 12 0 6 -10 25 -23 42 -23 31
-23 32 -21 338 1 168 5 311 8 317 4 6 18 11 32 11 l24 0 1 228 c1 125 0 268
-1 317 -1 71 1 87 11 78 7 -7 13 -48 15 -100z m152 -301 l2 -403 -22 3 -23 3
-3 403 -2 403 22 -3 23 -3 3 -403z m242 333 c0 -35 -5 -67 -11 -71 -8 -4 -8
-9 0 -17 10 -10 17 -337 7 -337 -2 0 -11 -3 -20 -6 -14 -6 -16 20 -16 243 0
137 3 252 6 256 3 3 12 3 20 0 10 -4 14 -23 14 -68z m698 -72 c2 -93 -1 -143
-8 -143 -6 0 -10 30 -10 74 0 41 -4 78 -10 81 -6 4 -10 -20 -10 -64 0 -71 -7
-84 -30 -56 -7 8 -18 15 -25 15 -8 0 -15 5 -17 12 -3 9 -41 12 -131 12 l-126
0 -40 -32 c-22 -18 -47 -32 -56 -32 -8 0 -20 -11 -26 -24 -6 -13 -20 -27 -30
-29 -11 -3 -19 -14 -19 -25 0 -11 -6 -22 -14 -25 -7 -3 -16 -21 -20 -40 -4
-20 -12 -37 -19 -40 -17 -5 -17 -189 1 -195 6 -2 12 -9 12 -16 0 -8 9 -25 20
-39 11 -14 20 -31 20 -38 0 -15 52 -65 102 -99 31 -20 38 -31 38 -57 0 -17 5
-35 10 -38 6 -4 10 6 10 24 0 16 5 33 10 36 6 4 10 -10 10 -34 0 -26 -5 -41
-12 -42 -10 0 -10 -2 0 -6 7 -3 12 -24 12 -54 0 -35 4 -51 15 -55 12 -5 15
-25 15 -90 0 -83 0 -84 25 -84 23 0 25 -3 25 -50 l0 -50 -230 0 -230 0 0 395
0 395 28 0 c49 0 52 11 52 182 0 131 2 158 15 158 10 0 15 16 17 63 l3 62 35
5 c31 4 36 9 40 40 7 47 15 48 305 46 l240 -1 3 -142z m172 132 c11 -7 14
-803 4 -842 -17 -63 -24 15 -24 268 0 179 -4 279 -10 279 -6 0 -10 -102 -10
-285 0 -273 1 -286 20 -302 19 -16 20 -30 20 -235 l0 -218 -55 0 -55 0 0 140
c0 130 1 140 20 150 20 11 21 17 16 313 -2 166 -7 323 -11 350 -7 48 -20 61
-28 30 -4 -15 -5 -14 -6 2 0 12 -5 25 -10 30 -5 6 -12 84 -16 174 l-8 164 72
-6 c39 -3 76 -9 81 -12z m190 -241 c0 -238 -1 -255 -17 -252 -16 3 -18 21 -21
176 -2 149 0 172 13 172 12 0 15 15 15 80 0 44 2 80 5 80 3 0 5 -115 5 -256z
m240 186 c5 0 11 15 13 33 2 17 3 -148 3 -368 l-1 -400 -22 -3 -23 -3 0 399
c0 219 3 402 8 406 4 4 8 -8 10 -28 2 -20 7 -36 12 -36z m88 -56 c2 -110 1
-120 -18 -132 -20 -12 -20 -10 -20 116 0 71 3 132 7 136 21 20 28 -9 31 -120z
m92 66 c0 -46 -4 -61 -17 -69 -10 -5 -14 -13 -10 -17 4 -4 17 1 28 13 16 15
21 33 21 77 l1 56 43 0 44 0 2 -207 3 -208 30 -3 c17 -1 40 -5 53 -7 l22 -5 0
-460 0 -460 -215 0 -215 0 0 238 c1 257 4 272 54 272 l26 0 0 262 c0 229 2
264 17 280 9 10 22 18 30 18 8 0 13 12 13 31 0 17 5 40 11 52 9 16 9 22 0 25
-14 5 -15 102 -1 102 6 0 10 13 10 28 0 33 7 42 32 42 15 0 18 -8 18 -60z
m218 -133 l2 -188 -32 3 -33 3 -3 188 -2 188 32 -3 33 -3 3 -188z m812 163 c0
-23 -4 -30 -20 -30 -14 0 -20 7 -20 23 0 27 7 37 27 37 8 0 13 -12 13 -30z
m1780 -74 c0 -59 4 -108 10 -111 6 -4 10 -181 10 -498 0 -468 -1 -490 -17
-474 -17 16 -18 55 -21 462 -3 289 -7 445 -14 445 -6 0 -9 -156 -6 -460 2
-367 6 -462 16 -469 22 -14 42 -61 42 -102 l0 -39 -340 0 -340 0 0 40 c0 38
-2 40 -30 40 -16 0 -30 5 -30 10 0 6 -11 10 -25 10 -20 0 -25 -5 -25 -25 0
-16 6 -25 15 -25 9 0 15 -9 15 -25 l0 -25 -382 0 -382 0 27 28 c15 15 27 38
27 51 0 12 4 19 10 16 6 -4 7 -11 4 -17 -6 -10 12 -28 29 -28 16 0 6 32 -18
54 -14 13 -25 31 -25 40 0 9 -4 16 -10 16 -5 0 -10 -22 -10 -49 0 -31 -5 -53
-15 -61 -13 -11 -15 -3 -15 65 0 57 -3 76 -12 73 -9 -3 -14 -31 -16 -81 -2
-42 -7 -77 -12 -77 -6 0 -10 -7 -10 -15 0 -10 -11 -15 -35 -15 -30 0 -35 3
-35 24 0 14 5 28 10 31 6 3 10 30 10 60 0 38 4 54 15 59 8 3 15 18 15 34 0 15
6 36 13 46 12 16 14 16 26 2 8 -9 17 -16 22 -16 15 0 10 27 -6 34 -23 9 -18
50 10 76 25 23 35 80 15 80 -5 0 -10 -9 -10 -19 0 -26 -10 -51 -21 -51 -5 0
-9 25 -9 55 0 95 -20 61 -22 -37 -1 -51 -3 -76 -5 -55 -6 52 -23 46 -23 -8 0
-25 -2 -45 -4 -45 -2 0 -11 -3 -20 -6 -14 -5 -16 6 -16 85 0 78 3 93 18 98 9
4 27 17 40 30 20 22 22 34 22 130 0 89 -2 104 -15 99 -11 -4 -15 2 -15 24 0
16 -4 32 -10 35 -14 9 -13 -181 2 -204 15 -24 6 -44 -31 -70 l-31 -22 0 43 c0
24 -3 66 -6 94 -5 39 -3 54 10 67 20 20 19 94 -1 89 -18 -3 -16 43 2 58 8 7
15 28 15 47 0 27 -3 34 -15 29 -11 -4 -15 2 -15 24 0 17 -4 30 -10 30 -6 0
-10 -36 -10 -89 0 -50 -4 -93 -10 -96 -5 -3 -10 -1 -10 4 0 6 -4 11 -10 11
-14 0 -13 -146 1 -172 7 -13 8 -23 1 -27 -5 -3 -12 -15 -15 -26 -2 -11 -5 24
-6 78 -1 63 -5 96 -11 92 -6 -3 -10 -47 -10 -98 0 -85 2 -94 25 -116 22 -20
25 -31 23 -90 -2 -65 -2 -65 -5 -12 -2 29 -10 60 -18 67 -17 17 -28 3 -18 -23
6 -16 5 -16 -10 -4 -12 10 -17 29 -17 72 0 33 -4 59 -10 59 -15 0 -13 -127 3
-137 17 -11 37 -49 37 -70 0 -9 10 -28 23 -41 15 -17 18 -26 10 -29 -16 -6
-18 -159 -3 -168 6 -3 10 -27 10 -53 0 -44 -1 -45 -17 -29 -13 13 -19 40 -23
94 -3 45 -10 78 -17 80 -8 3 -10 -9 -6 -39 4 -40 3 -42 -11 -24 -23 28 -20 79
4 101 16 15 20 29 18 64 -4 61 -22 58 -28 -4 -4 -45 -5 -42 -10 33 -6 90 -22
110 -30 35 -3 -30 -8 -43 -13 -35 -5 7 -13 10 -18 6 -6 -4 -2 -15 10 -28 19
-20 19 -26 8 -56 -9 -26 -9 -34 1 -37 6 -3 12 -17 12 -32 0 -17 11 -38 30 -57
21 -21 30 -39 30 -63 0 -24 9 -44 27 -63 l27 -28 -32 0 -32 0 0 60 c0 33 -4
60 -10 60 -6 0 -10 -27 -10 -60 0 -47 -3 -60 -15 -60 -12 0 -15 16 -15 80 0
47 -4 80 -10 80 -6 0 -10 -29 -10 -67 -1 -62 -2 -66 -15 -49 -9 12 -15 42 -15
72 0 34 -5 56 -15 64 -9 7 -17 11 -18 9 -2 -2 -1 -32 2 -67 5 -50 11 -68 34
-92 l29 -30 -66 0 -66 0 0 193 c0 137 3 196 12 205 7 7 33 12 59 12 27 0 51 6
58 13 7 10 12 140 13 418 l3 404 38 3 37 3 0 50 0 49 870 0 870 0 0 -104z m40
20 c0 -47 -4 -88 -10 -91 -6 -4 -10 27 -10 84 0 54 4 91 10 91 6 0 10 -35 10
-84z m80 -262 c0 -272 -3 -345 -12 -342 -10 4 -14 84 -16 346 -2 300 0 342 13
342 13 0 15 -44 15 -346z m74 269 c3 -42 6 -206 6 -364 0 -278 1 -289 20 -301
19 -12 20 -24 20 -310 l0 -298 -70 0 -70 0 0 310 c0 299 1 310 20 322 19 12
20 24 20 365 l0 353 24 0 c22 0 23 -5 30 -77z m56 32 c0 -33 -4 -45 -15 -45
-11 0 -15 12 -15 45 0 33 4 45 15 45 11 0 15 -12 15 -45z m289 -120 c1 -109
-2 -165 -9 -165 -6 0 -10 55 -10 158 0 135 3 172 15 172 1 0 3 -74 4 -165z
m511 55 c0 -99 -2 -110 -18 -110 -22 0 -72 -22 -72 -32 0 -5 -7 -8 -15 -8 -8
0 -15 -4 -15 -10 0 -5 -13 -10 -30 -10 -21 0 -30 -5 -30 -16 0 -10 -16 -36
-35 -60 -23 -27 -35 -53 -35 -72 0 -17 -6 -32 -12 -35 -18 -5 -18 -189 0 -195
6 -2 12 -13 12 -24 0 -12 11 -36 25 -54 14 -18 25 -37 25 -42 0 -11 47 -52 86
-74 23 -13 30 -24 32 -57 2 -23 7 -41 13 -41 5 0 9 -5 9 -11 0 -6 -7 -8 -16
-5 -9 4 -23 1 -30 -5 -8 -6 -20 -9 -28 -6 -7 3 -28 -3 -45 -14 -18 -11 -37
-17 -43 -13 -6 4 -13 3 -17 -2 -9 -14 -66 -43 -89 -47 -11 -2 -36 -17 -56 -35
-20 -18 -42 -32 -48 -32 -7 0 -32 -19 -55 -42 l-43 -42 0 416 0 416 30 10 29
11 3 123 c3 119 4 123 26 126 21 3 27 24 25 90 -1 9 47 12 208 12 l209 0 0
-110z m1080 56 c0 -45 3 -54 20 -59 20 -5 20 -14 20 -366 l0 -361 54 0 c40 0
55 -4 60 -16 3 -9 6 -123 6 -255 l0 -239 -210 0 -210 0 0 30 c0 28 2 30 40 30
33 0 40 3 40 20 0 15 7 20 25 20 25 0 25 1 25 80 0 79 0 80 -25 80 -18 0 -25
5 -25 20 0 17 -7 20 -40 20 -33 0 -40 3 -40 20 0 13 -7 20 -20 20 -13 0 -20 7
-20 20 0 13 -7 20 -20 20 -13 0 -20 7 -20 20 0 13 -7 20 -20 20 -13 0 -20 7
-20 20 0 17 -7 20 -40 20 -33 0 -40 3 -40 20 0 15 -7 20 -25 20 l-25 0 0 145
0 145 24 0 c13 0 27 7 30 16 3 9 6 82 6 164 0 139 1 149 20 155 16 5 20 17 22
73 l3 67 32 -2 c30 -3 32 -1 35 34 4 48 14 51 196 52 l142 1 0 -54z m112 -188
l3 -243 23 -3 c22 -3 22 -5 22 -158 l0 -155 -32 3 -33 3 -3 398 c-1 258 1 397
8 397 6 0 11 -90 12 -242z m282 226 c11 -29 7 -64 -9 -64 -11 0 -15 11 -15 40
0 40 13 53 24 24z m556 -659 l0 -676 -147 3 -148 3 -3 119 c-2 99 0 121 13
128 13 8 15 52 15 328 0 207 -4 320 -10 320 -6 0 -11 -110 -12 -307 l-2 -308
-7 355 c-3 195 -7 417 -8 493 0 84 -5 137 -11 137 -6 0 -10 -133 -10 -377 0
-208 -3 -388 -6 -400 -17 -63 -24 15 -24 268 0 179 -4 279 -10 279 -6 0 -10
-103 -10 -290 0 -279 1 -290 20 -302 19 -12 20 -24 20 -230 l0 -218 -60 0 -60
0 0 135 c0 124 2 136 20 147 19 12 20 24 20 296 0 186 -3 281 -10 277 -6 -4
-10 -107 -10 -276 0 -212 -3 -270 -12 -267 -10 4 -14 72 -16 287 -2 270 -1
284 18 308 21 26 28 93 10 93 -5 0 -10 -10 -10 -22 0 -13 -4 -29 -9 -36 -15
-24 -21 14 -21 129 0 66 -4 109 -10 109 -15 0 -13 157 3 163 6 3 119 6 250 6
l237 1 0 -675z m-14872 627 c2 -24 -1 -32 -12 -32 -12 0 -16 10 -16 36 0 45
24 42 28 -4z m489 -114 c-2 -29 -3 -6 -3 52 0 58 1 81 3 53 2 -29 2 -77 0
-105z m546 -2 c17 -16 7 -338 -10 -344 -10 -3 -13 51 -11 250 1 139 4 220 5
179 2 -41 9 -79 16 -85z m17 89 c0 -37 -4 -65 -10 -65 -6 0 -10 28 -10 65 0
37 4 65 10 65 6 0 10 -28 10 -65z m809 -122 c1 -83 -3 -133 -9 -133 -6 0 -10
60 -9 163 1 96 4 150 9 132 4 -16 8 -90 9 -162z m638 165 c-3 -8 -6 -5 -6 6
-1 11 2 17 5 13 3 -3 4 -12 1 -19z m453 -128 c6 0 10 -47 10 -110 0 -91 -3
-110 -15 -110 -13 0 -15 27 -13 188 1 103 4 152 5 110 2 -43 8 -78 13 -78z
m1367 53 c-2 -21 -4 -6 -4 32 0 39 2 55 4 38 2 -18 2 -50 0 -70z m390 65 c-3
-7 -5 -2 -5 12 0 14 2 19 5 13 2 -7 2 -19 0 -25z m2320 10 c-3 -8 -6 -5 -6 6
-1 11 2 17 5 13 3 -3 4 -12 1 -19z m133 -98 c0 -73 -4 -120 -10 -120 -6 0 -10
47 -10 120 0 73 4 120 10 120 6 0 10 -47 10 -120z m5238 82 c2 -24 -1 -32 -12
-32 -12 0 -16 10 -16 36 0 45 24 42 28 -4z m791 -94 c-1 -73 -5 -144 -9 -158
-5 -15 -8 38 -9 133 -1 98 3 157 9 157 6 0 10 -50 9 -132z m242 -18 c15 0 7
-342 -8 -347 -9 -3 -12 55 -10 249 1 139 3 218 5 176 1 -43 7 -78 13 -78z m6
43 c-2 -21 -4 -4 -4 37 0 41 2 58 4 38 2 -21 2 -55 0 -75z m-12337 7 c0 -92
-12 -120 -24 -52 -12 72 -7 142 9 142 12 0 15 -17 15 -90z m68 68 c-2 -17 -10
-23 -28 -23 -18 0 -26 6 -28 23 -3 19 1 22 28 22 27 0 31 -3 28 -22z m3070 0
c-2 -15 -11 -24 -25 -26 -19 -3 -23 1 -23 22 0 21 5 26 26 26 21 0 25 -4 22
-22z m42 -68 c0 -53 -4 -90 -10 -90 -6 0 -10 37 -10 90 0 53 4 90 10 90 6 0
10 -37 10 -90z m3267 -47 c-2 -27 -3 -5 -3 47 0 52 1 74 3 48 2 -27 2 -69 0
-95z m83 112 c0 -21 -5 -25 -30 -25 -25 0 -30 4 -30 25 0 21 5 25 30 25 25 0
30 -4 30 -25z m850 -64 c0 -62 -4 -91 -12 -94 -10 -4 -10 -7 0 -18 8 -9 12
-56 12 -162 0 -161 5 -177 54 -177 l26 0 0 -395 0 -395 -70 0 -70 0 0 124 c0
73 4 127 10 131 6 4 10 124 10 327 0 177 -3 319 -6 315 -4 -3 -13 0 -20 8 -11
10 -14 53 -14 185 l0 172 28 -3 c15 -2 29 1 32 6 3 6 -10 11 -27 13 -27 3 -33
7 -33 28 0 21 4 24 40 24 l40 0 0 -89z m5020 37 c0 -70 -10 -129 -21 -122 -5
3 -9 43 -9 90 0 68 3 84 15 84 11 0 15 -12 15 -52z m60 27 c0 -20 -5 -25 -25
-25 -20 0 -25 5 -25 25 0 20 5 25 25 25 20 0 25 -5 25 -25z m-13810 -201 c0
-141 -3 -213 -10 -209 -6 4 -10 87 -10 216 0 133 4 209 10 209 6 0 10 -79 10
-216z m1930 1 c0 -186 -2 -214 -15 -209 -13 5 -15 39 -15 215 0 179 2 209 15
209 13 0 15 -31 15 -215z m280 -110 c0 -210 -4 -325 -10 -325 -6 0 -10 96 -10
269 0 169 -4 272 -10 276 -7 4 -10 -93 -10 -284 0 -182 4 -292 10 -296 6 -4
10 -122 10 -321 0 -260 -2 -314 -14 -314 -22 0 -26 48 -26 311 0 166 -3 249
-10 249 -8 0 -10 -90 -8 -280 l3 -280 -23 0 -22 0 2 493 3 492 23 3 c21 3 22
6 22 127 l0 123 30 11 c24 8 30 16 30 40 0 17 2 31 5 31 3 0 5 -146 5 -325z
m3670 116 c0 -176 -2 -210 -15 -215 -13 -5 -15 23 -15 209 0 184 2 215 15 215
13 0 15 -30 15 -209z m6507 -108 c-1 -60 -3 -11 -3 107 0 118 2 167 3 108 2
-60 2 -156 0 -215z m1943 101 c0 -168 -3 -215 -12 -212 -10 4 -14 58 -16 216
-2 184 0 212 13 212 13 0 15 -29 15 -216z m260 -438 c-7 -7 -10 82 -10 273 0
185 -3 280 -10 276 -6 -4 -10 -110 -10 -286 0 -236 2 -283 15 -295 13 -13 15
-63 15 -325 0 -268 -2 -309 -15 -309 -8 0 -15 8 -15 18 0 10 -5 23 -12 30 -9
9 -9 12 0 12 7 0 12 9 12 20 0 11 -4 20 -10 20 -6 0 -10 83 -10 230 0 147 -4
230 -10 230 -6 0 -10 -83 -10 -230 0 -198 -2 -230 -15 -230 -13 0 -15 53 -13
443 l3 442 22 3 c22 3 23 8 25 130 3 123 4 127 26 130 18 3 22 11 24 40 2 20
4 -109 5 -287 2 -210 0 -328 -7 -335z m-8253 602 c-3 -7 -5 -2 -5 12 0 14 2
19 5 13 2 -7 2 -19 0 -25z m-647 -113 c0 -83 -4 -135 -10 -135 -6 0 -10 49
-10 128 0 113 3 142 17 142 2 0 3 -61 3 -135z m937 -52 c-2 -37 -3 -9 -3 62 0
72 1 102 3 68 2 -34 2 -93 0 -130z m658 150 c4 -21 9 -143 12 -270 3 -196 1
-233 -10 -233 -23 0 -27 47 -27 301 0 225 8 289 25 202z m7225 -98 c0 -83 -4
-135 -10 -135 -6 0 -10 52 -10 135 0 83 4 135 10 135 6 0 10 -52 10 -135z
m-14333 -72 c-2 -38 -3 -7 -3 67 0 74 1 105 3 68 2 -38 2 -98 0 -135z m-289
-124 c3 -275 0 -325 -18 -314 -6 4 -10 121 -10 301 0 232 3 295 13 292 9 -4
13 -70 15 -279z m12402 -13 c0 -149 -3 -282 -7 -294 -16 -62 -23 25 -23 297 0
260 2 292 15 281 13 -11 15 -55 15 -284z m-9082 -64 c-5 -55 -28 -53 -28 2 0
37 3 44 16 39 10 -4 14 -16 12 -41z m6912 -167 c0 -158 -1 -165 -20 -165 -19
0 -20 7 -20 151 0 133 2 153 18 165 9 7 18 14 20 14 1 0 2 -74 2 -165z
m-10120 -10 c0 -148 -1 -155 -20 -155 -19 0 -20 7 -20 155 0 148 1 155 20 155
19 0 20 -7 20 -155z m12390 0 c0 -148 -1 -155 -20 -155 -19 0 -20 7 -20 155 0
148 1 155 20 155 19 0 20 -7 20 -155z m-9180 -310 c0 -344 -2 -395 -15 -395
-13 0 -15 51 -15 395 0 344 2 395 15 395 13 0 15 -51 15 -395z m697 97 c-9 -9
-23 -11 -36 -7 -33 10 -28 71 9 115 17 19 31 41 32 50 1 8 4 -21 5 -64 3 -59
0 -83 -10 -94z m4620 -179 c-2 -2 -12 0 -21 3 -16 6 -17 21 -14 149 2 108 7
146 18 160 13 16 15 2 18 -145 1 -89 1 -165 -1 -167z m-7490 235 c-3 -8 -6 -5
-6 6 -1 11 2 17 5 13 3 -3 4 -12 1 -19z m12193 -28 c0 -13 -7 -20 -20 -20 -13
0 -20 -7 -20 -20 0 -13 -7 -20 -20 -20 -17 0 -20 7 -20 40 l0 40 40 0 c33 0
40 -3 40 -20z m-4800 -260 c0 -214 -2 -260 -14 -260 -7 0 -16 14 -20 31 -10
53 -7 359 4 359 6 0 10 26 10 58 0 51 5 72 17 72 2 0 3 -117 3 -260z m-8430
-5 l0 -255 -35 0 -35 0 0 204 c0 169 3 206 15 216 9 7 15 29 15 51 0 32 3 39
20 39 19 0 20 -7 20 -255z m10145 245 c-3 -5 -20 -10 -36 -10 -18 0 -28 4 -24
10 3 6 20 10 36 10 18 0 28 -4 24 -10z m2250 -234 c4 -134 4 -249 1 -255 -4
-6 -20 -11 -37 -11 l-29 0 0 204 c0 126 4 207 10 211 6 3 10 23 10 44 0 40 6
51 26 51 9 0 14 -63 19 -244z m-8395 182 c0 -49 -5 -47 -13 5 -3 20 -2 37 4
37 5 0 9 -19 9 -42z m-3350 -14 c0 -21 -4 -33 -10 -29 -5 3 -10 22 -10 41 0
21 4 33 10 29 6 -3 10 -22 10 -41z m390 -25 c0 -38 -3 -68 -7 -66 -8 5 -5 137
3 137 2 0 4 -32 4 -71z m7330 -153 c0 -123 3 -231 6 -240 5 -14 -3 -16 -55
-16 l-61 0 0 93 c0 81 3 96 20 112 14 13 20 31 20 60 0 26 6 48 15 55 11 9 15
32 15 80 0 69 4 80 27 80 10 0 13 -44 13 -224z m4675 214 c3 -5 1 -10 -4 -10
-6 0 -11 5 -11 10 0 6 2 10 4 10 3 0 8 -4 11 -10z m-4738 -107 c-2 -21 -4 -6
-4 32 0 39 2 55 4 38 2 -18 2 -50 0 -70z m4803 77 c0 -13 7 -20 20 -20 13 0
20 -7 20 -20 0 -17 -7 -20 -40 -20 l-40 0 0 40 c0 33 3 40 20 40 13 0 20 -7
20 -20z m-12420 -20 c0 -16 -4 -30 -10 -30 -5 0 -10 14 -10 30 0 17 5 30 10
30 6 0 10 -13 10 -30z m7590 -74 c0 -59 -4 -108 -10 -111 -6 -4 -10 33 -10
104 0 67 4 111 10 111 6 0 10 -41 10 -104z m-1943 12 c-2 -18 -4 -6 -4 27 0
33 2 48 4 33 2 -15 2 -42 0 -60z m-2437 23 c0 -16 7 -34 15 -41 8 -7 15 -19
15 -27 0 -7 7 -16 15 -19 8 -4 15 -17 15 -30 0 -13 9 -33 20 -44 17 -17 20
-32 18 -97 l-2 -78 -3 73 c-5 94 -23 93 -23 -2 0 -53 4 -77 15 -86 22 -18 18
-30 -10 -30 -22 0 -24 4 -27 57 -2 32 -8 58 -15 60 -9 3 -10 -6 -6 -34 6 -35
5 -37 -10 -24 -24 19 -22 76 3 101 21 21 29 110 10 110 -5 0 -10 -20 -10 -44
0 -25 -4 -48 -10 -51 -6 -4 -10 23 -10 74 0 44 -4 83 -10 86 -6 4 -10 -15 -10
-51 0 -56 0 -57 -20 -39 -16 14 -20 31 -20 80 0 63 11 85 42 85 13 0 18 -8 18
-29z m82 12 c14 -12 18 -31 18 -80 0 -40 -4 -62 -10 -58 -5 3 -10 28 -10 54 0
48 -21 84 -35 61 -3 -5 -1 -10 4 -10 6 0 11 -12 10 -27 0 -27 -1 -27 -9 -5 -5
12 -14 22 -20 22 -5 0 -10 14 -10 30 0 24 4 30 22 30 12 0 30 -7 40 -17z
m9728 -33 c0 -13 -7 -20 -20 -20 -13 0 -20 -7 -20 -20 0 -13 -7 -20 -20 -20
-17 0 -20 7 -20 40 l0 40 40 0 c33 0 40 -3 40 -20z m-480 -80 c0 -13 -7 -20
-20 -20 -13 0 -20 7 -20 20 0 13 7 20 20 20 13 0 20 -7 20 -20z m-2778 -60
c-2 -16 -6 -30 -8 -30 -2 0 -4 14 -4 30 0 17 4 30 8 30 5 0 7 -13 4 -30z
m-6572 -21 c0 -4 -7 -9 -15 -13 -16 -6 -21 -56 -6 -56 5 0 12 10 14 23 2 12 5
-3 6 -32 1 -45 6 -60 29 -84 15 -17 22 -27 15 -23 -6 3 -14 2 -18 -4 -14 -22
-35 -10 -35 20 0 20 -5 30 -15 30 -12 0 -15 16 -15 85 0 83 1 85 20 73 11 -7
20 -16 20 -19z m4287 -51 c-2 -18 -4 -6 -4 27 0 33 2 48 4 33 2 -15 2 -42 0
-60z m5503 -68 c0 -17 -7 -20 -40 -20 -33 0 -40 3 -40 20 0 17 7 20 40 20 33
0 40 -3 40 -20z m-11770 -30 c0 -13 7 -20 20 -20 13 0 20 7 20 20 0 13 7 20
20 20 13 0 20 -7 20 -20 0 -13 7 -20 20 -20 13 0 20 -7 20 -20 0 -13 -7 -20
-20 -20 -15 0 -20 -7 -20 -25 0 -22 -4 -25 -40 -25 -36 0 -40 3 -40 25 0 18
-5 25 -20 25 -13 0 -20 7 -20 20 0 13 -7 20 -20 20 -13 0 -20 7 -20 20 0 17 7
20 40 20 33 0 40 -3 40 -20z m12624 -7 c3 -10 9 -24 12 -30 4 -9 -3 -13 -20
-13 -22 0 -26 4 -26 30 0 33 23 42 34 13z m-3174 -8 c0 -8 -7 -15 -15 -15 -8
0 -15 7 -15 15 0 8 7 15 15 15 8 0 15 -7 15 -15z m270 -80 c0 -8 -7 -15 -15
-15 -8 0 -15 7 -15 15 0 8 7 15 15 15 8 0 15 -7 15 -15z m-9880 -35 c0 -13 7
-20 20 -20 13 0 20 -7 20 -20 0 -13 -7 -20 -20 -20 -13 0 -20 -7 -20 -20 0
-13 -7 -20 -20 -20 -13 0 -20 -7 -20 -20 0 -13 -7 -20 -20 -20 -13 0 -20 -7
-20 -20 0 -13 -7 -20 -20 -20 -13 0 -20 -7 -20 -20 0 -17 7 -20 40 -20 l40 0
0 -80 c0 -73 -2 -80 -20 -80 -13 0 -20 -7 -20 -20 0 -13 -7 -20 -20 -20 -13 0
-20 -7 -20 -20 0 -13 -7 -20 -20 -20 -19 0 -20 7 -20 140 0 133 1 140 20 140
17 0 20 7 20 40 0 33 3 40 20 40 17 0 20 7 20 40 0 33 3 40 20 40 13 0 20 7
20 20 0 13 7 20 20 20 13 0 20 -7 20 -20z m360 0 c0 -13 7 -20 20 -20 17 0 20
-7 20 -40 0 -33 3 -40 20 -40 13 0 20 -7 20 -20 0 -13 7 -20 20 -20 17 0 20
-7 20 -40 0 -33 3 -40 20 -40 18 0 20 -7 20 -60 l0 -60 -60 0 -60 0 0 60 c0
53 -2 60 -20 60 -17 0 -20 7 -20 40 0 33 3 40 20 40 13 0 20 7 20 20 0 13 -7
20 -20 20 -13 0 -20 7 -20 20 0 13 -7 20 -20 20 -17 0 -20 -7 -20 -40 l0 -40
-40 0 c-33 0 -40 3 -40 20 0 13 7 20 20 20 13 0 20 7 20 20 0 13 7 20 20 20
17 0 20 7 20 40 0 33 3 40 20 40 13 0 20 -7 20 -20z m9330 10 c0 -5 -7 -10
-15 -10 -8 0 -15 5 -15 10 0 6 7 10 15 10 8 0 15 -4 15 -10z m50 -25 c0 -8 7
-15 15 -15 8 0 15 -7 15 -15 0 -9 9 -15 25 -15 14 0 25 -4 25 -10 0 -5 -11
-10 -25 -10 -14 0 -25 5 -25 10 0 6 -7 10 -15 10 -8 0 -15 7 -15 15 0 8 -4 15
-10 15 -5 0 -10 7 -10 15 0 8 5 15 10 15 6 0 10 -7 10 -15z m-9620 -85 l0 -40
-40 0 c-33 0 -40 3 -40 20 0 13 7 20 20 20 13 0 20 7 20 20 0 13 7 20 20 20
17 0 20 -7 20 -40z m9780 -10 c0 -20 5 -30 15 -30 8 0 15 -4 15 -10 0 -5 7
-10 15 -10 8 0 15 -7 15 -15 0 -8 7 -15 15 -15 8 0 15 -5 15 -11 0 -14 25 -39
39 -39 6 0 11 -7 11 -15 0 -8 7 -15 15 -15 8 0 15 -6 15 -13 0 -7 9 -19 20
-27 11 -8 20 -25 20 -37 0 -20 -3 -21 -26 -13 -34 13 -40 13 -58 -6 -15 -14
-16 -14 -16 0 0 9 -4 16 -10 16 -5 0 -10 7 -10 15 0 8 -7 15 -15 15 -8 0 -15
5 -15 10 0 6 -7 10 -15 10 -8 0 -15 7 -15 15 0 8 -7 15 -15 15 -8 0 -15 5 -15
11 0 14 -25 39 -39 39 -6 0 -11 7 -11 15 0 8 -7 15 -15 15 -9 0 -15 -9 -15
-25 0 -14 -4 -25 -10 -25 -5 0 -10 23 -10 50 0 47 2 50 25 50 14 0 25 -4 25
-10 0 -5 7 -10 15 -10 8 0 15 -7 15 -15 0 -8 5 -15 10 -15 6 0 10 -7 10 -15 0
-8 7 -15 15 -15 8 0 15 -4 15 -10 0 -5 7 -10 15 -10 8 0 15 -7 15 -15 0 -8 7
-15 15 -15 9 0 15 -9 15 -25 0 -14 5 -25 10 -25 6 0 10 -7 10 -15 0 -8 7 -15
15 -15 8 0 15 7 15 15 0 8 -7 15 -15 15 -9 0 -15 9 -15 25 0 14 -4 25 -10 25
-5 0 -10 7 -10 15 0 8 -7 15 -15 15 -8 0 -15 5 -15 10 0 6 -7 10 -15 10 -8 0
-15 7 -15 15 0 8 -7 15 -15 15 -8 0 -15 5 -15 11 0 14 -25 39 -39 39 -6 0 -11
7 -11 15 0 8 7 15 15 15 8 0 15 7 15 15 0 8 5 15 10 15 6 0 10 -13 10 -30z
m60 15 c0 -8 -7 -15 -15 -15 -8 0 -15 7 -15 15 0 8 7 15 15 15 8 0 15 -7 15
-15z m420 -75 c0 -5 16 -10 35 -10 19 0 35 -4 35 -10 0 -5 13 -10 30 -10 22 0
28 -4 24 -15 -4 -9 -19 -15 -40 -15 -19 0 -34 -4 -34 -10 0 -5 -5 -10 -11 -10
-18 0 -39 -27 -39 -50 0 -20 -1 -20 -25 5 -14 14 -35 25 -45 25 -11 0 -20 5
-20 10 0 6 -11 10 -25 10 -14 0 -25 5 -25 10 0 6 -11 10 -25 10 -14 0 -25 4
-25 10 0 5 11 12 25 16 14 3 25 10 25 15 0 5 7 9 15 9 8 0 15 5 15 10 0 6 25
10 55 10 30 0 55 -4 55 -10z m-10140 -70 c0 -13 7 -20 20 -20 17 0 20 -7 20
-40 l0 -40 -80 0 -80 0 0 40 c0 33 3 40 20 40 13 0 20 7 20 20 0 17 7 20 40
20 33 0 40 -3 40 -20z m9380 -20 c0 -13 -7 -20 -20 -20 -13 0 -20 -7 -20 -20
0 -13 -7 -20 -20 -20 -17 0 -20 7 -20 40 l0 40 40 0 c33 0 40 -3 40 -20z
m2430 -120 c0 -33 -3 -40 -20 -40 -13 0 -20 7 -20 20 0 13 -7 20 -20 20 -13 0
-20 7 -20 20 0 17 7 20 40 20 l40 0 0 -40z m-1766 -45 c8 -8 19 -15 25 -15 6
0 11 -4 11 -10 0 -5 7 -10 15 -10 10 0 15 -10 15 -31 0 -30 -19 -59 -39 -59
-6 0 -11 -4 -11 -9 0 -5 -25 -13 -55 -16 -30 -4 -55 -11 -55 -16 0 -5 -13 -9
-30 -9 -23 0 -30 -4 -30 -20 0 -11 -4 -20 -10 -20 -5 0 -10 7 -10 16 0 8 -18
33 -40 55 -22 22 -40 44 -40 49 0 5 -16 12 -35 16 -19 3 -35 10 -35 15 0 5 -7
9 -15 9 -8 0 -15 3 -15 6 0 12 30 34 47 34 10 0 29 7 43 14 37 21 243 21 264
1z m376 -25 c0 -5 11 -10 25 -10 14 0 25 -4 25 -10 0 -5 9 -10 20 -10 11 0 20
-5 20 -11 0 -6 -9 -13 -20 -16 -11 -3 -20 -9 -20 -14 0 -5 -9 -9 -20 -9 -11 0
-20 -4 -20 -10 0 -5 -5 -10 -11 -10 -7 0 -17 -7 -24 -16 -8 -12 -20 -15 -43
-9 -18 3 -32 11 -32 16 0 5 -7 9 -15 9 -8 0 -15 5 -15 10 0 6 -11 10 -25 10
-20 0 -25 5 -25 25 0 21 5 25 30 25 17 0 30 5 30 10 0 6 16 10 35 10 19 0 35
5 35 10 0 6 11 10 25 10 14 0 25 -4 25 -10z m-1920 -130 c0 -13 -7 -20 -20
-20 -13 0 -20 7 -20 20 0 13 7 20 20 20 13 0 20 -7 20 -20z m1870 -100 c0 -5
7 -10 15 -10 8 0 15 -4 15 -10 0 -5 11 -10 25 -10 16 0 25 -6 25 -15 0 -8 -7
-15 -15 -15 -8 0 -15 -4 -15 -10 0 -5 -7 -10 -15 -10 -8 0 -15 -4 -15 -10 0
-5 -15 -10 -32 -10 -25 0 -39 8 -57 30 -13 16 -27 27 -32 24 -5 -3 -9 4 -9 15
0 12 7 21 15 21 8 0 15 5 15 10 0 6 18 10 40 10 22 0 40 -4 40 -10z m301 -12
c26 -30 24 -36 -15 -44 -41 -7 -81 21 -70 49 9 25 63 22 85 -5z m-9454 -90
c-3 -8 -6 -5 -6 6 -1 11 2 17 5 13 3 -3 4 -12 1 -19z m1550 -30 c-3 -8 -6 -5
-6 6 -1 11 2 17 5 13 3 -3 4 -12 1 -19z m7382 16 c17 -4 31 -11 31 -16 0 -13
-26 -38 -39 -38 -6 0 -11 -4 -11 -10 0 -5 -9 -10 -20 -10 -11 0 -20 5 -20 10
0 6 -9 10 -20 10 -11 0 -20 5 -20 10 0 6 7 10 15 10 8 0 15 9 15 20 0 22 15
25 69 14z"/>
<path d="M15860 8021 c0 -26 -4 -31 -25 -31 -20 0 -25 -5 -25 -25 0 -20 5 -25
25 -25 20 0 25 5 25 25 0 20 5 25 26 25 22 0 25 4 22 28 -2 19 -9 28 -25 30
-20 3 -23 -1 -23 -27z"/>
<path d="M7420 6125 c0 -20 5 -25 25 -25 20 0 25 5 25 25 0 20 -5 25 -25 25
-20 0 -25 -5 -25 -25z"/>
<path d="M7023 5953 c-15 -3 -23 -12 -23 -24 0 -14 -7 -19 -25 -19 -20 0 -25
-5 -25 -24 0 -19 6 -24 38 -30 20 -3 52 -6 70 -6 31 0 32 -1 32 -45 0 -41 -2
-45 -25 -45 -20 0 -25 5 -25 25 0 23 -4 25 -45 25 -41 0 -45 -2 -45 -25 0 -20
-5 -25 -25 -25 -20 0 -25 5 -25 25 0 20 -5 25 -25 25 -20 0 -25 -5 -25 -25 0
-20 -5 -25 -25 -25 -20 0 -25 -5 -25 -25 0 -18 -5 -25 -20 -25 -15 0 -20 -7
-20 -25 0 -23 -3 -25 -50 -25 l-50 0 0 -50 0 -50 -45 0 c-41 0 -45 2 -45 25 0
18 5 25 20 25 15 0 20 7 20 25 0 18 -5 25 -20 25 -15 0 -20 -7 -20 -25 0 -20
-5 -25 -25 -25 -20 0 -25 -5 -25 -25 0 -20 5 -25 25 -25 24 0 25 -2 25 -75 0
-68 2 -75 20 -75 15 0 20 7 20 25 0 24 2 25 75 25 73 0 75 1 75 25 0 23 4 25
45 25 41 0 45 2 45 25 0 20 5 25 25 25 20 0 25 5 25 25 0 20 5 25 25 25 20 0
25 5 25 25 0 20 -5 25 -25 25 -20 0 -25 5 -25 25 0 23 3 25 50 25 47 0 50 -2
50 -25 0 -18 5 -25 20 -25 15 0 20 7 20 25 0 20 5 25 25 25 20 0 25 5 25 25 0
20 5 25 25 25 24 0 25 2 25 75 0 73 -1 75 -25 75 -20 0 -25 5 -25 25 0 26 -11
29 -67 18z m-173 -268 c0 -20 5 -25 25 -25 20 0 25 -5 25 -25 0 -20 -5 -25
-25 -25 -20 0 -25 -5 -25 -25 0 -20 -5 -25 -25 -25 -20 0 -25 5 -25 25 0 18
-5 25 -20 25 -15 0 -20 7 -20 25 0 18 5 25 20 25 15 0 20 7 20 25 0 20 5 25
25 25 20 0 25 -5 25 -25z m-90 -150 c0 -20 -5 -25 -25 -25 -20 0 -25 5 -25 25
0 20 5 25 25 25 20 0 25 -5 25 -25z"/>
<path d="M6800 5635 c0 -20 5 -25 25 -25 20 0 25 5 25 25 0 20 -5 25 -25 25
-20 0 -25 -5 -25 -25z"/>
<path d="M6850 5880 c0 -15 7 -20 25 -20 18 0 25 5 25 20 0 15 -7 20 -25 20
-18 0 -25 -5 -25 -20z"/>
<path d="M12300 5435 c0 -20 5 -25 25 -25 20 0 25 5 25 25 0 20 -5 25 -25 25
-20 0 -25 -5 -25 -25z"/>
<path d="M3170 5505 c0 -20 5 -25 25 -25 20 0 25 5 25 25 0 20 -5 25 -25 25
-20 0 -25 -5 -25 -25z"/>
<path d="M3030 5405 c0 -20 5 -25 25 -25 20 0 25 5 25 25 0 20 -5 25 -25 25
-20 0 -25 -5 -25 -25z"/>
<path d="M12010 5260 c0 -43 -3 -50 -20 -50 -15 0 -20 7 -20 25 0 23 -3 25
-50 25 -47 0 -50 -2 -50 -25 0 -20 -5 -25 -25 -25 -20 0 -25 5 -25 25 0 20 -5
25 -25 25 -20 0 -25 -5 -25 -25 0 -20 -5 -25 -25 -25 -20 0 -25 -5 -25 -25 0
-18 -5 -25 -20 -25 -15 0 -20 -7 -20 -25 0 -18 5 -25 20 -25 15 0 20 7 20 25
0 20 5 25 25 25 20 0 25 5 25 25 0 20 5 25 25 25 20 0 25 -5 25 -25 0 -24 2
-25 70 -25 l70 0 0 -50 c0 -43 -3 -50 -20 -50 -15 0 -20 7 -20 25 0 23 -3 25
-50 25 -47 0 -50 -2 -50 -25 0 -20 -5 -25 -25 -25 -20 0 -25 5 -25 25 0 18 -5
25 -20 25 -15 0 -20 -7 -20 -25 0 -20 -5 -25 -25 -25 -20 0 -25 -5 -25 -25 0
-20 -5 -25 -25 -25 -20 0 -25 -5 -25 -25 0 -20 5 -25 25 -25 20 0 25 -5 25
-25 0 -18 5 -25 20 -25 15 0 20 7 20 25 0 18 -5 25 -20 25 -15 0 -20 7 -20 25
0 20 5 25 25 25 20 0 25 -5 25 -25 0 -18 5 -25 20 -25 15 0 20 -7 20 -25 0
-18 -5 -25 -20 -25 -15 0 -20 -7 -20 -25 0 -18 5 -25 20 -25 15 0 20 7 20 25
0 20 5 25 25 25 20 0 25 5 25 25 0 20 -5 25 -25 25 -20 0 -25 5 -25 25 0 23 3
25 50 25 47 0 50 -2 50 -25 0 -18 5 -25 20 -25 15 0 20 7 20 25 0 20 5 25 25
25 20 0 25 5 25 25 0 20 5 25 25 25 24 0 25 2 25 75 0 73 1 75 25 75 23 0 25
3 25 50 0 47 -2 50 -25 50 -23 0 -25 -3 -25 -50z"/>
<path d="M11440 4935 c0 -20 -5 -25 -25 -25 -20 0 -25 -5 -25 -25 0 -20 5 -25
25 -25 20 0 25 5 25 25 0 20 5 25 25 25 20 0 25 5 25 25 0 20 -5 25 -25 25
-20 0 -25 -5 -25 -25z"/>
<path d="M2360 4966 c0 -23 -5 -25 -47 -28 l-48 -3 -3 -47 -3 -48 -45 0 c-40
0 -44 2 -44 25 0 20 5 25 25 25 20 0 25 5 25 25 0 20 -5 25 -25 25 -20 0 -25
-5 -25 -25 0 -20 -5 -25 -25 -25 -20 0 -25 -5 -25 -25 0 -20 5 -25 25 -25 24
0 25 -2 25 -75 0 -73 1 -75 25 -75 20 0 25 5 25 25 0 24 2 25 70 25 68 0 70 1
70 25 0 23 3 25 50 25 47 0 50 2 50 25 0 18 5 25 20 25 15 0 20 7 20 25 0 20
5 25 25 25 20 0 25 5 25 25 0 20 -5 25 -25 25 -20 0 -25 -5 -25 -25 0 -18 -5
-25 -20 -25 -15 0 -20 -7 -20 -25 0 -20 -5 -25 -25 -25 -20 0 -25 5 -25 25 0
18 5 25 20 25 15 0 20 7 20 25 0 18 -5 25 -20 25 -15 0 -20 7 -20 25 0 20 -5
25 -25 25 -20 0 -25 -5 -25 -24z m50 -51 c0 -20 -5 -25 -25 -25 -20 0 -25 5
-25 25 0 20 5 25 25 25 20 0 25 -5 25 -25z m-50 -100 c0 -20 -5 -25 -25 -25
-20 0 -25 5 -25 25 0 20 5 25 25 25 20 0 25 -5 25 -25z"/>
<path d="M2870 2330 c0 -13 7 -20 20 -20 13 0 20 7 20 20 0 13 -7 20 -20 20
-13 0 -20 -7 -20 -20z"/>
<path d="M3738 3334 c-4 -3 3 -15 14 -26 11 -11 22 -17 26 -14 3 4 -3 16 -14
27 -11 11 -23 17 -26 13z"/>
<path d="M10160 3300 c0 -5 5 -10 10 -10 6 0 10 5 10 10 0 6 -4 10 -10 10 -5
0 -10 -4 -10 -10z"/>
</g>
</svg>
