<?xml version="1.0" standalone="no"?>
<!DOCTYPE svg PUBLIC "-//W3C//DTD SVG 20010904//EN"
 "http://www.w3.org/TR/2001/REC-SVG-20010904/DTD/svg10.dtd">
<svg version="1.0" xmlns="http://www.w3.org/2000/svg"
 width="1609.000000pt" height="907.000000pt" viewBox="0 0 1609.000000 907.000000"
 preserveAspectRatio="xMidYMid meet">

<g transform="translate(0.000000,907.000000) scale(0.100000,-0.100000)"
fill="#000000" stroke="none">
<path d="M2 4538 l-2 -4538 8045 0 8045 0 0 2275 c0 1510 -3 2275 -10 2275 -5
0 -10 9 -10 20 0 11 5 20 10 20 7 0 10 600 10 1780 0 1690 -1 1780 -17 1776
-35 -6 -72 -25 -80 -41 -7 -12 -29 -16 -86 -19 -42 -2 -83 -9 -91 -15 -12 -10
-21 -8 -48 12 -36 27 -81 32 -99 11 -6 -8 -18 -14 -25 -14 -8 0 -14 -4 -14
-10 0 -5 -3 -9 -7 -8 -5 1 -19 -2 -32 -6 -19 -7 -28 -4 -41 11 -23 29 -68 56
-80 48 -5 -3 -10 -1 -10 6 0 8 -17 10 -61 6 -44 -4 -62 -2 -65 8 -6 15 -74 15
-74 -1 0 -8 -30 -11 -89 -10 -82 1 -91 -1 -116 -24 -26 -25 -27 -25 -41 -5
-12 16 -16 17 -23 6 -7 -11 -10 -9 -15 7 -18 56 -130 84 -142 36 -6 -22 -6
-23 -26 -4 -37 35 -142 37 -192 4 -16 -10 -38 -20 -50 -21 -12 -2 -28 -6 -36
-10 -8 -3 -21 -5 -28 -4 -8 1 -20 -6 -27 -16 -12 -16 -14 -16 -20 -2 -6 17
-55 24 -55 8 0 -11 -34 -12 -44 -2 -13 14 -66 9 -81 -7 -15 -17 -41 -20 -62
-7 -20 12 -134 -1 -152 -17 -13 -12 -25 -14 -49 -7 -20 6 -34 6 -38 0 -3 -6
-21 6 -40 25 -31 32 -38 35 -89 34 -30 -1 -58 1 -62 5 -10 11 -91 8 -98 -3 -4
-6 -11 -8 -16 -5 -5 4 -12 -1 -15 -9 -3 -9 -14 -16 -24 -16 -10 0 -22 -9 -25
-21 -5 -16 -12 -19 -28 -14 -12 4 -40 8 -61 9 -30 1 -41 6 -49 23 -8 17 -17
21 -44 19 -19 -1 -36 2 -40 6 -3 5 -11 7 -19 4 -7 -3 -16 -1 -19 4 -9 15 -65
12 -65 -2 0 -9 -3 -9 -9 1 -7 12 -13 12 -24 3 -7 -7 -17 -8 -21 -4 -4 4 -13
-1 -20 -10 -10 -13 -31 -19 -84 -21 -39 -2 -78 -10 -87 -17 -10 -8 -19 -9 -27
-2 -7 5 -40 10 -72 11 -38 1 -66 7 -76 16 -10 9 -25 13 -34 9 -9 -3 -16 -1
-16 4 0 14 -81 13 -98 -1 -7 -5 -15 -7 -18 -4 -4 3 -13 0 -20 -8 -18 -18 -45
-9 -37 12 5 13 2 15 -15 11 -12 -4 -25 -2 -28 3 -8 14 -66 11 -113 -6 -22 -8
-41 -12 -41 -9 0 2 -18 -7 -40 -21 -22 -14 -40 -22 -40 -19 0 4 -9 -1 -20 -11
-16 -14 -20 -15 -20 -4 0 8 -8 16 -17 17 -92 11 -123 21 -116 39 4 9 0 14 -8
12 -15 -2 -42 6 -72 22 -10 5 -22 7 -27 4 -5 -3 -11 -1 -14 4 -10 16 -103 7
-124 -12 -10 -9 -26 -17 -34 -17 -9 0 -18 -9 -21 -20 -5 -19 -11 -20 -59 -15
-39 5 -60 14 -78 33 -35 38 -75 40 -101 8 -15 -19 -26 -25 -44 -20 -12 3 -26
1 -29 -5 -4 -6 -16 -11 -27 -11 -12 0 -19 -7 -19 -20 0 -26 -3 -25 -41 10 -21
18 -36 26 -40 19 -4 -7 -9 -5 -12 6 -4 9 -12 15 -19 14 -34 -4 -59 3 -76 21
-15 17 -27 20 -58 15 -47 -7 -52 -7 -133 0 -53 4 -62 3 -57 -10 3 -8 1 -15 -3
-15 -5 0 -11 5 -13 12 -3 7 -12 6 -30 -6 -25 -16 -28 -16 -51 -1 -18 11 -27
13 -32 5 -5 -8 -10 -8 -20 0 -10 9 -23 3 -54 -26 -40 -36 -42 -36 -61 -19 -11
10 -20 15 -20 10 0 -4 -6 -3 -12 3 -20 16 -124 7 -143 -12 -10 -10 -27 -14
-48 -12 -18 3 -35 5 -39 5 -4 1 -5 8 -2 16 4 11 -1 15 -17 15 -13 -1 -38 2
-56 6 -32 6 -93 -13 -93 -29 0 -5 -3 -6 -7 -4 -16 10 -54 -13 -51 -30 3 -16
-4 -18 -47 -15 -27 2 -55 10 -61 18 -13 16 -106 29 -132 19 -25 -11 -52 -13
-52 -3 0 4 -9 8 -19 8 -11 0 -22 6 -24 13 -4 9 -8 9 -15 -2 -7 -10 -11 -10
-17 -1 -5 8 -11 7 -23 -3 -23 -20 -109 -15 -126 8 -12 17 -81 22 -159 12 -22
-3 -56 1 -78 8 -25 9 -39 10 -39 4 0 -6 -6 -9 -12 -6 -7 2 -12 11 -10 20 2 12
-5 15 -32 14 -38 -3 -79 -34 -72 -54 3 -7 -1 -13 -10 -13 -8 0 -18 -10 -23
-23 -8 -20 -14 -22 -56 -19 -28 3 -49 10 -52 18 -3 8 -13 14 -23 14 -22 0 -36
17 -45 53 -10 38 -46 63 -93 65 -31 1 -41 -3 -51 -22 -12 -21 -38 -29 -51 -16
-36 36 -159 62 -186 39 -12 -10 -20 -7 -42 13 -37 33 -82 35 -111 4 -13 -14
-20 -29 -16 -35 3 -6 0 -11 -8 -11 -8 0 -25 -8 -38 -19 -13 -10 -41 -24 -63
-32 -22 -8 -42 -23 -47 -35 -11 -30 -24 -37 -39 -19 -15 18 -63 20 -91 4 -16
-8 -25 -7 -39 6 -10 9 -24 14 -29 10 -6 -3 -11 0 -11 8 0 10 -10 14 -32 14
-18 -1 -35 -4 -38 -8 -5 -7 -49 -12 -82 -10 -11 1 -15 6 -12 15 4 11 -6 16
-38 20 -36 5 -103 3 -103 -4 0 -7 -47 -5 -51 2 -3 5 -15 6 -25 3 -11 -4 -27
-1 -35 6 -22 18 -54 22 -54 6 0 -9 -2 -9 -9 1 -6 10 -10 10 -20 -2 -7 -8 -19
-12 -27 -9 -7 3 -16 -2 -20 -10 -3 -9 -11 -14 -19 -11 -7 3 -15 -2 -18 -10 -4
-11 -16 -14 -42 -11 -20 3 -46 0 -58 -7 -12 -7 -24 -13 -27 -13 -3 0 -15 -6
-26 -13 -18 -9 -24 -9 -34 3 -10 12 -16 13 -26 4 -11 -9 -14 -8 -14 1 0 7 -7
10 -15 7 -8 -4 -17 -2 -20 3 -8 12 -63 6 -78 -9 -6 -6 -26 -11 -44 -11 -25 0
-31 4 -27 15 4 10 0 15 -15 15 -13 0 -26 10 -33 25 -6 14 -17 25 -24 25 -7 0
-11 6 -8 14 11 28 -79 56 -103 32 -3 -2 -20 4 -38 14 -42 24 -109 23 -152 -1
-19 -11 -39 -17 -44 -13 -6 3 -28 7 -48 9 -32 3 -41 -1 -51 -21 -7 -13 -21
-26 -32 -30 -10 -3 -18 -9 -18 -14 0 -5 -16 -14 -35 -21 -19 -7 -35 -17 -35
-22 0 -6 -5 -5 -12 0 -7 6 -24 9 -38 8 -14 -1 -36 2 -50 8 -14 6 -29 12 -35
13 -5 1 -12 3 -15 4 -3 1 -24 4 -47 6 -30 3 -47 -1 -59 -14 -12 -11 -19 -13
-21 -5 -13 37 -43 59 -83 60 -27 1 -43 -3 -47 -12 -6 -17 -68 -36 -88 -29 -7
3 -16 1 -19 -5 -4 -6 -13 -8 -21 -4 -8 3 -15 1 -15 -5 0 -14 -41 -2 -47 14 -4
10 -25 12 -81 10 -66 -3 -80 -1 -99 17 -24 21 -118 33 -128 16 -3 -4 -11 -6
-18 -3 -8 3 -26 -5 -42 -18 -17 -14 -39 -21 -56 -20 -15 2 -30 -2 -34 -8 -5
-8 -17 -2 -37 17 -25 23 -39 28 -86 30 -31 1 -83 4 -115 7 -49 4 -61 2 -78
-15 -22 -22 -96 -30 -108 -11 -7 11 -28 11 -47 -1 -6 -3 -14 -3 -18 1 -4 4
-13 7 -19 7 -7 1 -29 5 -50 9 -30 7 -42 5 -56 -8 -14 -12 -21 -14 -26 -6 -5 8
-14 5 -30 -10 -20 -19 -26 -20 -44 -8 -12 7 -21 15 -21 18 0 3 -16 6 -35 6
-19 1 -35 -3 -35 -7 0 -5 -5 -9 -12 -9 -6 0 -22 -10 -35 -22 -14 -13 -27 -18
-31 -13 -9 13 -35 13 -44 0 -5 -6 -8 -6 -8 2 0 9 -7 8 -26 -2 -15 -7 -33 -11
-40 -8 -7 3 -27 -5 -43 -16 -32 -23 -51 -27 -51 -10 0 6 -6 9 -14 6 -7 -3 -22
7 -34 22 -16 22 -29 28 -61 29 -22 1 -43 -2 -46 -8 -3 -5 -12 -7 -20 -3 -9 3
-15 -1 -15 -8 0 -11 -2 -11 -10 1 -11 18 -92 20 -98 2 -2 -6 -10 -12 -18 -12
-8 0 -26 -7 -40 -16 -24 -16 -26 -16 -50 7 -21 19 -38 24 -87 26 -34 2 -80 5
-101 8 -22 3 -46 3 -55 -1 -32 -14 -59 -14 -71 1 -7 8 -20 15 -30 15 -9 0 -20
3 -23 6 -9 10 -97 11 -97 2 0 -5 -7 -8 -16 -8 -9 0 -23 -9 -32 -21 -14 -16
-29 -20 -79 -20 -35 0 -65 -5 -68 -9 -3 -5 -12 -7 -19 -4 -8 3 -17 1 -20 -5
-5 -7 -20 -2 -44 12 -46 29 -78 29 -119 -1 -18 -13 -33 -20 -33 -17 0 4 -11 0
-25 -9 -23 -15 -25 -15 -35 3 -16 32 -79 64 -130 67 -28 2 -52 -1 -55 -7 -5
-7 -14 -4 -27 8 -27 24 -85 26 -91 3 -3 -11 -13 -16 -28 -14 -13 1 -24 3 -24
5 0 7 -96 5 -101 -2 -3 -5 -10 -7 -15 -3 -6 3 -19 -3 -30 -15 -19 -20 -49 -19
-49 1 0 6 -6 8 -14 5 -9 -4 -21 5 -31 20 -12 18 -19 22 -25 13 -5 -8 -9 -5
-13 9 -7 29 -66 29 -90 0 -17 -19 -19 -19 -30 -5 -14 19 -147 35 -147 18 0 -5
-6 -9 -12 -9 -12 1 -58 -17 -111 -45 -10 -5 -22 -6 -27 -3 -5 3 -19 0 -30 -7
-16 -10 -22 -10 -28 -1 -8 12 -24 12 -54 -2 -10 -4 -26 -4 -35 1 -31 13 -67
11 -86 -5 -20 -16 -55 -22 -63 -10 -6 11 -103 9 -109 -2 -3 -4 -12 -6 -20 -3
-9 4 -18 -1 -21 -11 -4 -10 -13 -14 -23 -10 -27 11 -61 13 -67 3 -3 -5 -21 6
-39 25 -29 30 -40 35 -92 37 -144 8 -174 6 -184 -12 -6 -10 -16 -18 -24 -18
-8 0 -21 -10 -29 -22 -13 -18 -19 -20 -39 -11 -12 6 -35 9 -50 8 -19 -2 -33 4
-45 20 -11 14 -28 22 -47 22 -17 0 -39 4 -50 9 -11 5 -51 9 -88 9 -56 0 -72
-4 -83 -19 -11 -15 -26 -19 -69 -18 -30 0 -57 -4 -61 -9 -3 -5 -10 -7 -15 -3
-5 3 -16 1 -24 -6 -8 -7 -15 -7 -19 -1 -3 5 -30 9 -59 9 -59 -1 -97 8 -97 24
0 6 -9 8 -20 5 -11 -3 -23 -1 -26 4 -7 12 -91 11 -99 -1 -4 -6 -11 -7 -17 -4
-6 4 -13 2 -17 -4 -10 -17 -35 -18 -36 -2 0 8 -11 17 -25 21 -35 10 -110 11
-110 1 0 -4 -9 -9 -20 -10 -11 -1 -29 -3 -40 -4 -11 -1 -20 -6 -20 -10 0 -4
-4 -8 -10 -8 -6 0 -11 176 -13 493 -1 270 -3 -1550 -5 -4045z m14748 3602 c0
-5 -5 -10 -11 -10 -5 0 -7 5 -4 10 3 6 8 10 11 10 2 0 4 -4 4 -10z m-13880
-40 c0 -5 -5 -10 -11 -10 -5 0 -7 5 -4 10 3 6 8 10 11 10 2 0 4 -4 4 -10z
m837 -46 c-3 -3 -12 -4 -19 -1 -8 3 -5 6 6 6 11 1 17 -2 13 -5z m7857 -325
c-3 -5 -10 -7 -15 -3 -5 3 -7 10 -3 15 3 5 10 7 15 3 5 -3 7 -10 3 -15z m5912
-1103 c18 -19 18 -44 -1 -62 -13 -14 -17 -14 -30 0 -17 17 -20 46 -5 46 6 0
10 7 10 15 0 19 7 19 26 1z m-8910 -700 c18 -19 18 -44 -1 -62 -13 -14 -17
-14 -30 0 -17 17 -20 46 -5 46 6 0 10 7 10 15 0 19 7 19 26 1z m-482 -72 c8
-22 7 -47 -3 -63 -8 -12 -12 -12 -25 2 -18 17 -21 47 -6 47 6 0 10 7 10 15 0
20 16 19 24 -1z m2576 -1319 c0 -8 7 -15 15 -15 8 0 15 -7 15 -15 0 -8 5 -15
10 -15 6 0 10 -16 10 -36 0 -35 -18 -64 -39 -64 -6 0 -11 -7 -11 -15 0 -11
-11 -15 -40 -15 -29 0 -40 4 -40 15 0 8 -5 15 -11 15 -21 0 -39 29 -39 64 0
20 5 36 10 36 6 0 10 7 10 15 0 8 7 15 15 15 8 0 15 7 15 15 0 11 11 15 40 15
29 0 40 -4 40 -15z m-4506 -31 c8 -22 7 -47 -3 -63 -8 -12 -12 -12 -25 2 -19
19 -20 31 -4 57 15 24 24 25 32 4z m4346 -159 c0 -8 -7 -15 -15 -15 -8 0 -15
7 -15 15 0 8 7 15 15 15 8 0 15 -7 15 -15z m50 -25 c0 -5 -4 -10 -10 -10 -5 0
-10 5 -10 10 0 6 5 10 10 10 6 0 10 -4 10 -10z m60 0 c0 -5 -7 -10 -15 -10 -8
0 -15 5 -15 10 0 6 7 10 15 10 8 0 15 -4 15 -10z m50 0 c0 -5 -7 -10 -15 -10
-8 0 -15 5 -15 10 0 6 7 10 15 10 8 0 15 -4 15 -10z m-410 -64 c0 -25 -20 -19
-21 7 -1 16 -3 17 -6 5 -2 -9 1 -26 7 -37 8 -17 8 -21 -4 -21 -20 0 -31 55
-15 73 11 11 16 12 26 1 7 -7 13 -20 13 -28z m220 -16 c0 -5 -4 -10 -10 -10
-5 0 -10 5 -10 10 0 6 5 10 10 10 6 0 10 -4 10 -10z m60 0 c0 -5 -7 -10 -15
-10 -8 0 -15 5 -15 10 0 6 7 10 15 10 8 0 15 -4 15 -10z m50 0 c0 -5 -7 -10
-15 -10 -8 0 -15 5 -15 10 0 6 7 10 15 10 8 0 15 -4 15 -10z m50 0 c0 -5 -4
-10 -10 -10 -5 0 -10 5 -10 10 0 6 5 10 10 10 6 0 10 -4 10 -10z m6844 -298
c-13 -36 -31 -38 -39 -3 -8 39 12 66 34 44 10 -11 12 -22 5 -41z m-4139 -381
c7 -23 -4 -71 -16 -71 -5 0 -9 7 -9 15 0 8 -4 15 -10 15 -14 0 -12 28 3 45 17
19 25 18 32 -4z m-7959 -125 c16 -17 19 -56 4 -56 -5 0 -10 9 -10 20 0 11 -4
20 -10 20 -13 0 -13 -6 1 -32 14 -26 4 -35 -16 -15 -17 17 -20 47 -5 47 6 0
10 7 10 15 0 19 7 19 26 1z m12678 -22 c8 -22 7 -47 -3 -63 -8 -12 -12 -12
-25 2 -18 17 -21 47 -6 47 6 0 10 7 10 15 0 20 16 19 24 -1z m-11638 -538 c18
-19 18 -44 -1 -62 -13 -14 -17 -14 -30 0 -17 17 -20 46 -5 46 6 0 10 7 10 15
0 19 7 19 26 1z m6174 -156 l0 -40 -40 0 -40 0 0 40 0 40 40 0 40 0 0 -40z
m-6900 -20 c0 -5 -2 -10 -4 -10 -3 0 -8 5 -11 10 -3 6 -1 10 4 10 6 0 11 -4
11 -10z m-10 -22 c0 -7 3 -23 6 -35 7 -27 -11 -32 -19 -5 -2 9 -8 25 -12 35
-5 12 -2 17 9 17 9 0 16 -6 16 -12z m30 -8 c0 -11 -4 -20 -10 -20 -5 0 -10 9
-10 20 0 11 5 20 10 20 6 0 10 -9 10 -20z m-1364 -144 c16 -17 19 -46 4 -46
-5 0 -10 -7 -10 -15 0 -8 -4 -15 -10 -15 -5 0 -10 6 -10 14 0 8 -6 16 -12 19
-10 3 -10 10 1 30 17 31 18 32 37 13z m-686 -30 c0 -2 -7 -7 -16 -10 -8 -3
-12 -2 -9 4 6 10 25 14 25 6z m12400 0 c0 -2 -7 -7 -16 -10 -8 -3 -12 -2 -9 4
6 10 25 14 25 6z m-6310 -30 c0 -3 -4 -8 -10 -11 -5 -3 -10 -1 -10 4 0 6 5 11
10 11 6 0 10 -2 10 -4z m4396 -80 c18 -19 18 -44 -1 -62 -13 -14 -17 -14 -30
0 -17 17 -20 46 -5 46 6 0 10 7 10 15 0 19 7 19 26 1z m-1756 -146 c0 -33 3
-40 20 -40 18 0 20 -7 20 -60 l0 -60 -40 0 c-33 0 -40 3 -40 20 0 13 -7 20
-20 20 -18 0 -20 7 -20 60 0 53 2 60 20 60 13 0 20 7 20 20 0 13 7 20 20 20
17 0 20 -7 20 -40z m570 20 c0 -13 7 -20 20 -20 13 0 20 -7 20 -20 0 -17 -7
-20 -40 -20 -33 0 -40 -3 -40 -20 0 -13 -7 -20 -20 -20 -13 0 -20 -7 -20 -20
0 -13 -7 -20 -20 -20 -13 0 -20 7 -20 20 0 13 -7 20 -20 20 -13 0 -20 7 -20
20 0 13 -7 20 -20 20 -13 0 -20 7 -20 20 0 13 7 20 20 20 13 0 20 7 20 20 0
18 7 20 80 20 73 0 80 -2 80 -20z m240 -40 c0 -13 7 -20 20 -20 13 0 20 -7 20
-20 0 -13 -7 -20 -20 -20 -13 0 -20 -7 -20 -20 0 -13 -7 -20 -20 -20 -13 0
-20 7 -20 20 0 13 -7 20 -20 20 -13 0 -20 7 -20 20 0 13 7 20 20 20 13 0 20 7
20 20 0 13 7 20 20 20 13 0 20 -7 20 -20z m-4506 -60 c-4 -19 -2 -30 5 -30 6
0 11 10 11 22 0 12 3 19 6 15 9 -8 -6 -67 -17 -67 -5 0 -9 7 -9 15 0 8 -4 15
-10 15 -14 0 -12 28 3 45 17 20 17 19 11 -15z m-1904 0 c0 -13 7 -20 20 -20
19 0 20 -7 20 -100 0 -93 -1 -100 -20 -100 -13 0 -20 -7 -20 -20 0 -17 -7 -20
-40 -20 -33 0 -40 -3 -40 -20 0 -19 7 -20 100 -20 93 0 100 -1 100 -20 0 -13
7 -20 20 -20 18 0 20 -7 20 -60 0 -53 2 -60 20 -60 18 0 20 -7 20 -80 l0 -80
-40 0 -40 0 0 80 0 80 -40 0 -40 0 0 -40 0 -40 -120 0 -120 0 0 40 c0 33 3 40
20 40 18 0 20 7 20 80 l0 80 -40 0 -40 0 0 40 c0 33 3 40 20 40 13 0 20 7 20
20 0 13 -7 20 -20 20 -18 0 -20 7 -20 80 0 73 2 80 20 80 13 0 20 7 20 20 0
19 7 20 100 20 93 0 100 -1 100 -20z m7530 -25 c0 -8 -7 -15 -15 -15 -8 0 -15
7 -15 15 0 8 7 15 15 15 8 0 15 -7 15 -15z m-1280 -75 c0 -13 7 -20 20 -20 17
0 20 -7 20 -40 0 -33 -3 -40 -20 -40 -13 0 -20 -7 -20 -20 0 -13 -7 -20 -20
-20 -13 0 -20 -7 -20 -20 0 -13 7 -20 20 -20 13 0 20 -7 20 -20 0 -13 -7 -20
-20 -20 -13 0 -20 -7 -20 -20 0 -13 -7 -20 -20 -20 -13 0 -20 7 -20 20 0 13
-7 20 -20 20 -17 0 -20 -7 -20 -40 0 -33 -3 -40 -20 -40 -13 0 -20 -7 -20 -20
0 -13 -7 -20 -20 -20 -13 0 -20 -7 -20 -20 0 -13 -7 -20 -20 -20 -13 0 -20 -7
-20 -20 0 -13 -7 -20 -20 -20 -13 0 -20 -7 -20 -20 0 -13 -7 -20 -20 -20 -13
0 -20 -7 -20 -20 0 -13 -7 -20 -20 -20 -13 0 -20 -7 -20 -20 0 -13 -7 -20 -20
-20 -13 0 -20 -7 -20 -20 0 -15 -7 -20 -25 -20 -18 0 -25 -5 -25 -20 0 -13 -7
-20 -20 -20 -13 0 -20 -7 -20 -20 0 -13 -7 -20 -20 -20 -13 0 -20 -7 -20 -20
0 -17 -7 -20 -40 -20 -33 0 -40 3 -40 20 0 13 7 20 20 20 17 0 20 7 20 40 0
33 3 40 20 40 18 0 20 7 20 60 0 53 2 60 20 60 13 0 20 7 20 20 0 13 7 20 20
20 13 0 20 7 20 20 0 15 7 20 25 20 18 0 25 5 25 20 0 13 7 20 20 20 13 0 20
7 20 20 0 13 7 20 20 20 13 0 20 7 20 20 0 13 7 20 20 20 13 0 20 7 20 20 0
17 7 20 40 20 33 0 40 3 40 20 0 17 7 20 40 20 l40 0 0 40 c0 33 -3 40 -20 40
-13 0 -20 -7 -20 -20 0 -13 -7 -20 -20 -20 -13 0 -20 7 -20 20 0 13 7 20 20
20 13 0 20 7 20 20 0 13 7 20 20 20 13 0 20 -7 20 -20 0 -13 7 -20 20 -20 17
0 20 7 20 40 0 33 3 40 20 40 13 0 20 7 20 20 0 13 7 20 20 20 13 0 20 -7 20
-20z m1550 -5 c0 -8 -7 -15 -15 -15 -8 0 -15 7 -15 15 0 8 7 15 15 15 8 0 15
-7 15 -15z m-2200 -35 c0 -13 -7 -20 -20 -20 -18 0 -20 -7 -20 -60 0 -53 -2
-60 -20 -60 -13 0 -20 -7 -20 -20 0 -13 -7 -20 -20 -20 -19 0 -20 7 -20 100
l0 100 60 0 c53 0 60 -2 60 -20z m2010 10 c0 -5 -7 -10 -15 -10 -8 0 -15 5
-15 10 0 6 7 10 15 10 8 0 15 -4 15 -10z m50 -25 c0 -8 7 -15 15 -15 8 0 15
-7 15 -15 0 -9 9 -15 25 -15 14 0 25 -4 25 -10 0 -5 -11 -10 -25 -10 -14 0
-25 5 -25 10 0 6 -7 10 -15 10 -8 0 -15 7 -15 15 0 8 -4 15 -10 15 -5 0 -10 7
-10 15 0 8 5 15 10 15 6 0 10 -7 10 -15z m160 -95 c0 -20 5 -30 15 -30 8 0 15
-4 15 -10 0 -5 7 -10 15 -10 8 0 15 -7 15 -15 0 -8 7 -15 15 -15 8 0 15 -5 15
-11 0 -14 25 -39 39 -39 6 0 11 -7 11 -15 0 -8 7 -15 15 -15 8 0 15 -6 15 -13
0 -7 9 -19 20 -27 11 -8 20 -25 20 -37 0 -16 -6 -23 -20 -23 -11 0 -20 5 -20
10 0 6 -7 10 -15 10 -8 0 -15 7 -15 15 0 8 -7 15 -15 15 -9 0 -15 9 -15 25 0
14 -4 25 -10 25 -5 0 -10 7 -10 15 0 8 -7 15 -15 15 -8 0 -15 5 -15 10 0 6 -7
10 -15 10 -8 0 -15 7 -15 15 0 8 -7 15 -15 15 -8 0 -15 5 -15 11 0 14 -25 39
-39 39 -6 0 -11 7 -11 15 0 8 7 15 15 15 8 0 15 7 15 15 0 8 5 15 10 15 6 0
10 -13 10 -30z m60 15 c0 -8 -7 -15 -15 -15 -8 0 -15 7 -15 15 0 8 7 15 15 15
8 0 15 -7 15 -15z m-4750 -30 c0 -33 -2 -35 -35 -35 -33 0 -35 2 -35 35 0 33
2 35 35 35 33 0 35 -2 35 -35z m4640 -25 c0 -5 7 -10 15 -10 8 0 15 -7 15 -15
0 -8 5 -15 10 -15 6 0 10 -7 10 -15 0 -8 7 -15 15 -15 8 0 15 -4 15 -10 0 -5
7 -10 15 -10 8 0 15 -7 15 -15 0 -8 7 -15 15 -15 9 0 15 -9 15 -25 0 -14 5
-25 10 -25 6 0 10 -7 10 -15 0 -8 7 -15 15 -15 8 0 15 -7 15 -15 0 -8 5 -15
12 -15 6 0 9 -2 7 -5 -10 -9 -49 8 -49 21 0 8 -4 14 -10 14 -5 0 -10 7 -10 15
0 8 -7 15 -15 15 -8 0 -15 5 -15 10 0 6 -7 10 -15 10 -8 0 -15 7 -15 15 0 8
-7 15 -15 15 -8 0 -15 5 -15 11 0 14 -25 39 -39 39 -6 0 -11 7 -11 15 0 8 -7
15 -15 15 -9 0 -15 -9 -15 -25 0 -14 -4 -25 -10 -25 -5 0 -10 23 -10 50 0 47
2 50 25 50 14 0 25 -4 25 -10z m530 -20 c0 -5 16 -10 35 -10 19 0 35 -4 35
-10 0 -5 13 -10 30 -10 22 0 28 -4 24 -15 -4 -9 -19 -15 -40 -15 -19 0 -34 -4
-34 -10 0 -5 -5 -10 -11 -10 -18 0 -39 -27 -39 -50 0 -20 -1 -20 -25 5 -14 14
-35 25 -45 25 -11 0 -20 5 -20 10 0 6 -11 10 -25 10 -14 0 -25 5 -25 10 0 6
-11 10 -25 10 -14 0 -25 4 -25 10 0 5 11 12 25 16 14 3 25 10 25 15 0 5 7 9
15 9 8 0 15 5 15 10 0 6 25 10 55 10 30 0 55 -4 55 -10z m-5250 -40 c0 -28 -3
-30 -35 -30 -32 0 -35 2 -35 30 0 28 3 30 35 30 32 0 35 -2 35 -30z m160 0 c0
-27 -3 -30 -30 -30 -27 0 -30 3 -30 30 0 27 3 30 30 30 27 0 30 -3 30 -30z
m-80 -86 c0 -34 -1 -35 -32 -32 -29 3 -33 7 -36 36 -3 31 -2 32 32 32 35 0 36
-1 36 -36z m2510 16 c0 -13 -7 -20 -20 -20 -13 0 -20 7 -20 20 0 13 7 20 20
20 13 0 20 -7 20 -20z m2564 -145 c8 -8 19 -15 25 -15 6 0 11 -4 11 -10 0 -5
7 -10 15 -10 10 0 15 -10 15 -31 0 -30 -19 -59 -39 -59 -6 0 -11 -4 -11 -9 0
-5 -25 -13 -55 -16 -30 -4 -55 -11 -55 -16 0 -5 -13 -9 -30 -9 -23 0 -30 -4
-30 -20 0 -11 -4 -20 -10 -20 -5 0 -10 7 -10 16 0 8 -18 33 -40 55 -22 22 -40
44 -40 49 0 5 -16 12 -35 16 -19 3 -35 10 -35 15 0 5 -7 9 -15 9 -8 0 -15 3
-15 6 0 12 30 34 47 34 10 0 29 7 43 14 37 21 243 21 264 1z m-10444 -25 c10
-25 10 -32 -4 -45 -14 -15 -18 -15 -31 -1 -17 17 -20 46 -5 46 6 0 10 7 10 15
0 25 17 17 30 -15z m5128 -7 c-3 -36 -5 -38 -38 -38 -33 0 -35 2 -38 38 l-3
37 41 0 41 0 -3 -37z m5692 7 c0 -5 11 -10 25 -10 14 0 25 -4 25 -10 0 -5 9
-10 20 -10 11 0 20 -5 20 -11 0 -6 -9 -13 -20 -16 -11 -3 -20 -9 -20 -14 0 -5
-9 -9 -20 -9 -11 0 -20 -4 -20 -10 0 -5 -5 -10 -11 -10 -7 0 -17 -7 -24 -16
-8 -12 -20 -15 -43 -9 -18 3 -32 11 -32 16 0 5 -7 9 -15 9 -8 0 -15 5 -15 10
0 6 -11 10 -25 10 -20 0 -25 5 -25 25 0 21 5 25 30 25 17 0 30 5 30 10 0 6 16
10 35 10 19 0 35 5 35 10 0 6 11 10 25 10 14 0 25 -4 25 -10z m-8540 -70 l0
-40 -60 0 c-53 0 -60 -2 -60 -20 0 -13 7 -20 20 -20 17 0 20 -7 20 -40 0 -33
3 -40 20 -40 18 0 20 -7 20 -60 l0 -60 -60 0 c-53 0 -60 2 -60 20 0 13 7 20
20 20 17 0 20 7 20 40 0 33 -3 40 -20 40 -17 0 -20 7 -20 40 0 33 -3 40 -20
40 -18 0 -20 7 -20 60 l0 60 100 0 100 0 0 -40z m7560 -14 c0 -25 -20 -19 -21
7 -1 18 -2 19 -6 3 -3 -10 0 -23 6 -29 15 -15 14 -27 -3 -27 -20 0 -31 56 -15
73 11 11 16 12 26 1 7 -7 13 -20 13 -28z m-4800 -6 c0 -39 -1 -40 -35 -40 -34
0 -35 1 -35 40 0 39 1 40 35 40 34 0 35 -1 35 -40z m170 0 c0 -39 -1 -40 -35
-40 -34 0 -35 1 -35 40 0 39 1 40 35 40 34 0 35 -1 35 -40z m-80 -85 c0 -34
-1 -35 -40 -35 -39 0 -40 1 -40 35 0 34 1 35 40 35 39 0 40 -1 40 -35z m180
-80 c0 -33 -2 -35 -35 -35 -33 0 -35 2 -35 35 0 33 2 35 35 35 33 0 35 -2 35
-35z m5460 25 c0 -5 7 -10 15 -10 8 0 15 -4 15 -10 0 -5 11 -10 25 -10 16 0
25 -6 25 -15 0 -8 -7 -15 -15 -15 -8 0 -15 -4 -15 -10 0 -5 -7 -10 -15 -10 -8
0 -15 -4 -15 -10 0 -5 -15 -10 -32 -10 -25 0 -39 8 -57 30 -13 16 -27 27 -32
24 -5 -3 -9 4 -9 15 0 12 7 21 15 21 8 0 15 5 15 10 0 6 18 10 40 10 22 0 40
-4 40 -10z m301 -12 c26 -30 24 -36 -15 -44 -41 -7 -81 21 -70 49 9 25 63 22
85 -5z m-5841 -98 c0 -39 -1 -40 -35 -40 -34 0 -35 1 -35 40 0 39 1 40 35 40
34 0 35 -1 35 -40z m165 0 c0 -33 -2 -35 -35 -35 -29 0 -36 4 -38 23 -6 40 5
54 40 50 30 -3 33 -6 33 -38z m-3778 8 c-3 -8 -6 -5 -6 6 -1 11 2 17 5 13 3
-3 4 -12 1 -19z m1550 -30 c-3 -8 -6 -5 -6 6 -1 11 2 17 5 13 3 -3 4 -12 1
-19z m7382 16 c17 -4 31 -11 31 -16 0 -13 -26 -38 -39 -38 -6 0 -11 -4 -11
-10 0 -5 -9 -10 -20 -10 -11 0 -20 5 -20 10 0 6 -9 10 -20 10 -11 0 -20 5 -20
10 0 6 7 10 15 10 8 0 15 9 15 20 0 22 15 25 69 14z m-11598 -38 c12 7 12 -37
0 -55 -8 -12 -12 -12 -25 2 -9 8 -16 21 -16 27 0 15 24 40 28 29 2 -5 8 -7 13
-3z m6359 -41 c0 -33 -2 -35 -35 -35 -33 0 -35 2 -35 35 0 33 2 35 35 35 33 0
35 -2 35 -35z m7974 -571 c20 -8 21 -41 1 -60 -13 -14 -17 -14 -30 0 -18 18
-19 32 -2 51 15 17 12 16 31 9z m-10954 -211 c0 -10 -4 -24 -9 -32 -8 -12 -12
-12 -25 -2 -19 16 -20 34 -4 60 10 16 14 17 25 6 7 -8 13 -22 13 -32z m-1690
-140 c0 -10 -4 -24 -9 -32 -8 -12 -12 -12 -25 -2 -19 16 -20 34 -4 60 10 16
14 17 25 6 7 -8 13 -22 13 -32z"/>
<path d="M15450 6590 c0 -11 5 -20 10 -20 6 0 10 9 10 20 0 11 -4 20 -10 20
-5 0 -10 -9 -10 -20z"/>
<path d="M6540 5890 c0 -11 5 -20 10 -20 6 0 10 9 10 20 0 11 -4 20 -10 20 -5
0 -10 -9 -10 -20z"/>
<path d="M6060 5820 c0 -11 5 -20 10 -20 6 0 10 9 10 20 0 11 -4 20 -10 20 -5
0 -10 -9 -10 -20z"/>
<path d="M8630 4450 c0 -29 4 -40 15 -40 11 0 15 11 15 40 0 29 -4 40 -15 40
-11 0 -15 -11 -15 -40z"/>
<path d="M4130 4470 c0 -11 5 -20 10 -20 6 0 10 9 10 20 0 11 -4 20 -10 20 -5
0 -10 -9 -10 -20z"/>
<path d="M15450 3963 c0 -13 5 -23 10 -23 13 0 13 11 0 30 -8 12 -10 11 -10
-7z"/>
<path d="M11310 3540 c0 -11 5 -20 10 -20 6 0 10 9 10 20 0 11 -4 20 -10 20
-5 0 -10 -9 -10 -20z"/>
<path d="M16030 3380 c0 -11 5 -20 10 -20 6 0 10 9 10 20 0 11 -4 20 -10 20
-5 0 -10 -9 -10 -20z"/>
<path d="M4390 2840 c0 -11 5 -20 10 -20 6 0 10 9 10 20 0 11 -4 20 -10 20 -5
0 -10 -9 -10 -20z"/>
<path d="M2320 2500 c0 -11 5 -20 10 -20 6 0 10 9 10 20 0 11 -4 20 -10 20 -5
0 -10 -9 -10 -20z"/>
<path d="M12120 2350 c0 -11 5 -20 10 -20 6 0 10 9 10 20 0 11 -4 20 -10 20
-5 0 -10 -9 -10 -20z"/>
<path d="M11160 2180 c0 -13 7 -20 20 -20 13 0 20 7 20 20 0 13 -7 20 -20 20
-13 0 -20 -7 -20 -20z"/>
<path d="M4590 2040 c0 -13 7 -20 20 -20 13 0 20 -7 20 -20 0 -17 7 -20 40
-20 33 0 40 3 40 20 0 13 7 20 20 20 13 0 20 7 20 20 0 18 -7 20 -80 20 -73 0
-80 -2 -80 -20z"/>
<path d="M4670 1840 c0 -13 7 -20 20 -20 13 0 20 7 20 20 0 13 -7 20 -20 20
-13 0 -20 -7 -20 -20z"/>
<path d="M4750 1760 c0 -17 7 -20 40 -20 33 0 40 3 40 20 0 17 -7 20 -40 20
-33 0 -40 -3 -40 -20z"/>
<path d="M4710 1680 c0 -17 7 -20 40 -20 33 0 40 3 40 20 0 17 -7 20 -40 20
-33 0 -40 -3 -40 -20z"/>
<path d="M10960 1860 c0 -13 7 -20 20 -20 13 0 20 7 20 20 0 13 -7 20 -20 20
-13 0 -20 -7 -20 -20z"/>
<path d="M2520 1550 c0 -11 5 -20 10 -20 6 0 10 9 10 20 0 11 -4 20 -10 20 -5
0 -10 -9 -10 -20z"/>
<path d="M1480 1161 c0 -12 5 -21 10 -21 6 0 10 6 10 14 0 8 -4 18 -10 21 -5
3 -10 -3 -10 -14z"/>
<path d="M15810 540 c0 -11 5 -20 10 -20 6 0 10 9 10 20 0 11 -4 20 -10 20 -5
0 -10 -9 -10 -20z"/>
<path d="M4850 363 c0 -13 5 -23 10 -23 13 0 13 11 0 30 -8 12 -10 11 -10 -7z"/>
<path d="M3160 220 c0 -11 4 -20 9 -20 5 0 7 9 4 20 -3 11 -7 20 -9 20 -2 0
-4 -9 -4 -20z"/>
</g>
</svg>
